<svg width="29" height="30" viewBox="0 0 29 30" fill="none" xmlns="http://www.w3.org/2000/svg">
<g clip-path="url(#clip0_5213_32280)">
<path d="M9.83152 15.8094C9.82259 15.7357 9.76228 15.6799 9.69082 15.6799C9.68858 15.6799 9.68635 15.6799 9.68412 15.6799C9.41835 15.6933 9.14365 15.6687 8.86895 15.6062C8.79748 15.5906 8.72601 15.6263 8.69698 15.6911C7.85724 17.6787 7.3391 19.7714 7.1582 21.9087C8.50044 22.8065 10.0571 23.3581 11.6651 23.5033C10.7651 21.0154 10.1487 18.4269 9.83152 15.8094Z" fill="black"/>
<path d="M14.501 29.5555C14.5121 29.5555 14.5233 29.5555 14.5367 29.5555C13.4781 27.7845 12.5736 25.9174 11.8478 24.0056C10.1727 23.8917 8.54017 23.358 7.11976 22.4624C7.01703 24.2357 7.1488 26.0179 7.50837 27.7577C9.63674 28.9346 12.0555 29.5555 14.501 29.5555Z" fill="black"/>
<path d="M6.70044 21.5826C6.90367 19.5056 7.41734 17.4777 8.22805 15.5481C8.25931 15.4744 8.22805 15.394 8.15211 15.3583C7.82381 15.1975 7.53124 14.9876 7.27887 14.7307C7.22304 14.6749 7.13817 14.666 7.08011 14.7129C5.81603 15.6888 4.72393 16.9283 3.91992 18.2996C4.58546 19.5771 5.5458 20.7094 6.70044 21.5826Z" fill="black"/>
<path d="M6.6477 22.15C5.41489 21.2745 4.37638 20.1198 3.63715 18.8066C2.96268 20.0953 2.52271 21.4822 2.32617 22.9339C3.50538 24.7496 5.09999 26.304 6.94473 27.4341C6.6209 25.6898 6.5204 23.9143 6.64546 22.15H6.6477Z" fill="black"/>
<path d="M3.36537 18.2817C2.70654 16.9327 2.36037 15.4833 2.33803 13.978C1.53626 14.2617 0.750124 14.6078 0.00195312 15.0076V15.0567C0.00195312 17.5983 0.669724 20.0974 1.93603 22.2928C2.19287 20.8746 2.67303 19.5257 3.36537 18.2839V18.2817Z" fill="black"/>
<path d="M3.66703 17.7793C4.47997 16.4661 5.55644 15.2758 6.78032 14.331C6.84062 14.2841 6.85402 14.2015 6.81382 14.1345C6.64185 13.8486 6.51678 13.5404 6.44085 13.2188C6.42298 13.1429 6.35375 13.0915 6.28005 13.0982C5.10977 13.2166 3.94397 13.4578 2.81836 13.8174C2.81836 15.1931 3.10199 16.5242 3.6648 17.7793H3.66703Z" fill="black"/>
<path d="M2.34529 13.4601C2.39889 11.9526 2.77185 10.5121 3.45749 9.17883C2.97509 8.90412 2.49492 8.62719 2.01475 8.35249L1.72888 8.18945C0.681442 10.1325 0.103006 12.2385 0.0136719 14.454C0.768543 14.0654 1.55245 13.7326 2.34082 13.4624H2.34529V13.4601Z" fill="black"/>
<path d="M2.83594 13.3015C3.94591 12.9598 5.09385 12.7276 6.24626 12.6114C6.31549 12.6047 6.36909 12.5511 6.37802 12.4841C6.38472 12.4283 6.38919 12.3658 6.39589 12.2965C6.41822 12.0107 6.44726 11.6221 6.66836 11.1374C6.69739 11.0727 6.66836 10.9923 6.60359 10.9565C5.69462 10.4451 4.78342 9.9292 3.87891 9.41553C3.26027 10.6282 2.90964 11.9347 2.83594 13.2993V13.3015Z" fill="black"/>
<path d="M3.68675 8.74972C4.48852 7.35388 5.62083 6.15458 6.96307 5.27464C6.80897 4.52423 6.67497 3.7314 6.5633 2.91846C4.68506 4.14903 3.09715 5.82181 1.96484 7.76258L2.31548 7.96359C2.77108 8.22489 3.22668 8.48619 3.68675 8.74749V8.74972Z" fill="black"/>
<path d="M4.10938 8.99098C4.98708 9.48902 5.91392 10.0139 6.86532 10.5476C6.92786 10.5834 7.00826 10.5655 7.05516 10.5074C7.32539 10.1702 7.65146 9.89549 8.0289 9.69226C8.09366 9.65652 8.12493 9.58505 8.1026 9.51582C7.69613 8.29641 7.34996 7.04351 7.07303 5.78613C5.86479 6.61247 4.84191 7.71798 4.10938 8.99098Z" fill="black"/>
<path d="M11.6141 3.64898C12.1948 2.55687 12.8983 1.52506 13.709 0.578125C11.3506 0.705426 9.04127 1.41786 7.01562 2.6395C7.12059 3.43904 7.25236 4.23188 7.40423 5.00015C8.70404 4.23858 10.12 3.78521 11.6119 3.64898H11.6141Z" fill="black"/>
<path d="M8.5466 9.31709C8.57117 9.39079 8.65157 9.43322 8.73197 9.41312C9.0357 9.33272 9.3506 9.29699 9.6588 9.30815C9.73027 9.31485 9.79504 9.25679 9.80621 9.18309C10.0586 7.43661 10.5789 5.7482 11.3517 4.16699C9.98487 4.33449 8.69177 4.78563 7.50586 5.507C7.78056 6.79117 8.1312 8.07311 8.54436 9.31932L8.5466 9.31709Z" fill="black"/>
<path d="M12.549 3.60418C13.8957 3.60418 15.2089 3.86772 16.4551 4.38585C17.8756 3.41881 19.4166 2.65501 21.0402 2.11231C19.0012 1.07827 16.8035 0.555664 14.501 0.555664C14.4742 0.555664 14.4474 0.555664 14.4228 0.555664C14.4072 0.555664 14.3893 0.555664 14.3737 0.555664C13.5339 1.48474 12.7992 2.50984 12.1895 3.60865C12.2967 3.60418 12.4217 3.59971 12.549 3.59971V3.60418Z" fill="black"/>
<path d="M11.9213 4.11099C11.0972 5.72347 10.5478 7.45208 10.2887 9.25439C10.2775 9.32809 10.3267 9.39956 10.4026 9.41966C10.646 9.48666 10.8805 9.58492 11.1016 9.70999C11.1686 9.74796 11.2513 9.73009 11.2937 9.66532C12.5332 7.76028 14.1524 6.04954 15.9837 4.71623C14.8827 4.29859 13.728 4.08643 12.5511 4.08643C12.3612 4.08643 12.1602 4.09313 11.9235 4.10876L11.9213 4.11099Z" fill="black"/>
<path d="M20.7439 7.73381C22.7048 7.34744 24.7081 7.17771 26.7003 7.22238C25.4295 5.24586 23.6808 3.59319 21.6395 2.43408C19.9913 2.93882 18.4235 3.67359 16.9785 4.62276C18.4615 5.3419 19.759 6.4139 20.7417 7.73381H20.7439Z" fill="black"/>
<path d="M16.5115 4.93506C14.6154 6.26837 12.9448 8.00368 11.6785 9.96009C11.6406 10.0204 11.6517 10.1008 11.7076 10.1522C11.9108 10.3398 12.0872 10.5519 12.2346 10.782C12.2793 10.8512 12.3642 10.8735 12.4334 10.8356C14.8655 9.44418 17.483 8.43694 20.2188 7.84064C19.2406 6.58773 17.9609 5.58496 16.5115 4.93506Z" fill="black"/>
<path d="M12.6282 11.287C12.5679 11.3227 12.5389 11.3987 12.5634 11.4679C12.6327 11.6711 12.6818 11.8788 12.7086 12.0888C12.7175 12.1647 12.7801 12.2205 12.8515 12.2205C12.8538 12.2205 12.856 12.2205 12.8582 12.2205C13.8923 12.1714 14.962 12.1334 16.0229 12.1334C16.8961 12.1334 17.7649 12.1602 18.6046 12.2317C19.8039 12.3344 21.0189 12.4885 22.2115 12.6895C22.0283 11.1083 21.4499 9.58295 20.5365 8.27197C17.7537 8.85488 15.0938 9.86882 12.6282 11.287Z" fill="black"/>
<path d="M21.0508 8.16899C21.9687 9.54696 22.5427 11.1393 22.7079 12.7786C24.8229 13.1628 26.9334 13.7055 28.9836 14.3933C28.8787 12.0483 28.193 9.74127 27.0049 7.71785C25.015 7.64639 23.0139 7.79825 21.0508 8.16899Z" fill="black"/>
<path d="M22.7624 13.817C22.7624 15.4921 22.347 17.1537 21.5586 18.6232C23.4748 19.6237 25.4602 20.6109 27.4636 21.5534C28.4842 19.521 29.0023 17.3368 29.0023 15.0566C29.0023 15.0231 29.0023 14.9896 29.0001 14.9561C29.0001 14.9404 29.0001 14.927 29.0001 14.9114C26.9588 14.2168 24.855 13.6674 22.749 13.2788C22.7601 13.4753 22.7646 13.6518 22.7646 13.817H22.7624Z" fill="black"/>
<path d="M22.2526 13.1899C21.0265 12.9777 19.7848 12.8192 18.5609 12.7142C17.739 12.645 16.8837 12.6182 16.0216 12.6182C14.9608 12.6182 13.8888 12.6584 12.8525 12.7075C12.781 12.7097 12.7229 12.7678 12.714 12.8437C12.6917 13.0492 12.6492 13.2524 12.5889 13.4467C12.5688 13.5137 12.5934 13.5874 12.6515 13.6209C15.4811 15.3138 18.5698 17.0491 21.1337 18.3869C21.8819 16.9888 22.2772 15.4076 22.2772 13.8175C22.2772 13.6276 22.2705 13.4266 22.2549 13.1899H22.2526Z" fill="black"/>
<path d="M12.4032 14.0628C12.3541 14.0628 12.3072 14.0873 12.2804 14.1298C12.1531 14.3397 12.0012 14.5362 11.8248 14.7172C11.7757 14.7685 11.7645 14.8422 11.8002 14.9003C13.3993 17.5356 15.2418 20.028 17.2764 22.3105C18.7638 21.4775 20.0123 20.267 20.89 18.8064L20.7939 18.7573C18.2367 17.4195 15.282 15.7579 12.4792 14.0829C12.4546 14.0695 12.4278 14.0605 12.4032 14.0605V14.0628Z" fill="black"/>
<path d="M12.5494 23.5459C14.0547 23.5459 15.4975 23.2108 16.8397 22.5475H16.8375C14.8386 20.2919 13.0252 17.8352 11.4439 15.2423C11.4238 15.2088 11.3903 15.1842 11.3501 15.1753C11.3122 15.1663 11.2742 15.173 11.2429 15.1931C10.9839 15.3562 10.7092 15.4812 10.4233 15.5639C10.3496 15.5862 10.3027 15.6532 10.3116 15.7269C10.6332 18.3935 11.2653 21.0222 12.1943 23.5414C12.3127 23.5458 12.4311 23.5481 12.5517 23.5481L12.5494 23.5459Z" fill="black"/>
<path d="M17.1745 22.9204C15.7295 23.6574 14.1728 24.0326 12.547 24.0326C12.4889 24.0326 12.4331 24.0326 12.375 24.0304C13.112 25.9377 14.0254 27.7936 15.093 29.5467C17.4961 29.4507 19.85 28.7494 21.9136 27.5211C20.2453 26.1007 18.6507 24.553 17.1745 22.9226V22.9204Z" fill="black"/>
<path d="M27.241 21.9845C25.2354 21.0398 23.2433 20.0526 21.3181 19.0454C20.4181 20.5507 19.1384 21.8058 17.6152 22.6791C19.087 24.2982 20.6794 25.8348 22.3499 27.2463C24.3912 25.9286 26.0818 24.1106 27.241 21.9823V21.9845Z" fill="black"/>
</g>
<defs>
<clipPath id="clip0_5213_32280">
<rect width="29" height="29" fill="white" transform="translate(0 0.555664)"/>
</clipPath>
</defs>
</svg>
