<svg width="279" height="87" viewBox="0 0 279 87" fill="none" xmlns="http://www.w3.org/2000/svg">
<g clip-path="url(#clip0_5213_32059)">
<path d="M29.3815 45.5978C29.3532 45.3779 29.1687 45.2147 28.9559 45.2147C28.9559 45.2147 28.9417 45.2147 28.9346 45.2147C28.1401 45.2502 27.3172 45.1792 26.4943 44.9948C26.2815 44.9451 26.0616 45.0515 25.9836 45.2502C23.4723 51.1949 21.9259 57.4446 21.3867 63.8362C25.4019 66.5248 30.0555 68.1706 34.858 68.6033C32.1695 61.1689 30.325 53.4294 29.3745 45.6049L29.3815 45.5978Z" fill="black"/>
<path d="M21.2762 65.4824C20.9712 70.7816 21.3614 76.1091 22.4396 81.316C28.8029 84.8346 36.0316 86.6861 43.3454 86.6861C43.3808 86.6861 43.4163 86.6861 43.4518 86.6861C40.2879 81.387 37.5851 75.8111 35.4144 70.0935C30.4061 69.753 25.5255 68.1568 21.2762 65.4824Z" fill="black"/>
<path d="M20.0257 62.8572C20.6358 56.65 22.1681 50.5847 24.5942 44.8174C24.6864 44.5974 24.5942 44.3563 24.3672 44.2498C23.3882 43.7746 22.5086 43.1432 21.7566 42.3771C21.5935 42.2068 21.3381 42.1855 21.1607 42.3203C17.3797 45.2359 14.1165 48.946 11.7188 53.0463C13.7121 56.8628 16.5781 60.2537 20.0328 62.8572H20.0257Z" fill="black"/>
<path d="M19.8757 64.5458C16.194 61.9282 13.0869 58.4806 10.8807 54.5505C8.86601 58.4025 7.54654 62.5525 6.96484 66.8868C10.4834 72.3137 15.2576 76.9602 20.7696 80.3369C19.8048 75.1229 19.5069 69.8166 19.8757 64.5388V64.5458Z" fill="black"/>
<path d="M6.98749 40.1211C4.58976 40.9653 2.24167 42.001 0 43.1998V43.3488C0 50.9464 1.99339 58.4163 5.78153 64.9781C6.54767 60.736 7.98774 56.7066 10.0521 52.9965C8.07996 48.9601 7.05134 44.6328 6.9804 40.1282L6.98749 40.1211Z" fill="black"/>
<path d="M10.9622 51.4786C13.3954 47.5557 16.609 43.9945 20.2694 41.1711C20.4468 41.0293 20.4893 40.7881 20.3687 40.5824C19.858 39.7311 19.482 38.8089 19.255 37.8441C19.2053 37.6171 18.9996 37.461 18.7797 37.4894C15.2824 37.8441 11.7993 38.5606 8.42969 39.6389C8.42969 43.7533 9.28096 47.733 10.9622 51.4786Z" fill="black"/>
<path d="M7.00846 38.5749C7.16453 34.0703 8.28537 29.7643 10.3284 25.7775C8.88125 24.9546 7.44828 24.1317 6.01532 23.3088L5.16405 22.8193C2.03564 28.6221 0.311818 34.9215 0.0351562 41.5401C2.29102 40.3767 4.63201 39.3836 6.99428 38.5749H7.00846Z" fill="black"/>
<path d="M8.48366 38.0995C11.8036 37.078 15.23 36.3828 18.6776 36.0423C18.8833 36.021 19.0465 35.8649 19.0678 35.6592C19.089 35.489 19.1032 35.3045 19.1174 35.0988C19.1813 34.2475 19.2735 33.0841 19.9261 31.637C20.0112 31.4454 19.9261 31.2042 19.7346 31.0978C17.0176 29.5656 14.2936 28.0262 11.5908 26.4939C9.73928 30.1189 8.68938 34.0276 8.47656 38.1066L8.48366 38.0995Z" fill="black"/>
<path d="M11.0227 24.4934C13.4204 20.3222 16.8042 16.7327 20.8194 14.1009C20.3583 11.8521 19.961 9.48984 19.6276 7.06372C14.0163 10.7384 9.27051 15.7396 5.88672 21.5424L6.93662 22.1454C8.29865 22.9257 9.66068 23.7131 11.0298 24.4934H11.0227Z" fill="black"/>
<path d="M12.2852 25.2101C14.9099 26.6998 17.6765 28.2676 20.5212 29.8637C20.7056 29.9701 20.9468 29.9204 21.0887 29.7431C21.8974 28.7358 22.8764 27.9129 23.9972 27.3028C24.1958 27.1964 24.2809 26.9765 24.2171 26.7778C23.004 23.1387 21.9683 19.386 21.1383 15.6262C17.5276 18.0949 14.4701 21.4007 12.2852 25.2101Z" fill="black"/>
<path d="M34.7096 9.24152C36.4406 5.97833 38.5474 2.89248 40.9736 0.0620117C33.9293 0.445082 27.0198 2.57325 20.9688 6.22661C21.2809 8.61726 21.671 10.9866 22.1322 13.285C26.0196 11.0079 30.2476 9.65297 34.7096 9.24152Z" fill="black"/>
<path d="M25.5524 26.1821C25.6234 26.402 25.8717 26.5297 26.1058 26.4659C27.0138 26.2247 27.9573 26.1183 28.8795 26.1537C29.0923 26.175 29.2909 26.0048 29.3193 25.7778C30.0713 20.5566 31.6248 15.5129 33.9374 10.7812C29.8513 11.2849 25.9852 12.6257 22.4453 14.7822C23.2682 18.62 24.311 22.4507 25.5524 26.175V26.1821Z" fill="black"/>
<path d="M37.5048 9.10686C41.527 9.10686 45.457 9.89429 49.1813 11.4408C53.4306 8.54644 58.0345 6.26221 62.8868 4.6448C56.8002 1.56604 50.2241 -0.00170898 43.3431 -0.00170898C43.265 -0.00170898 43.187 -0.00170898 43.109 -0.00170898C43.0593 -0.00170898 43.0096 -0.00170898 42.96 -0.00170898C40.4487 2.77201 38.2567 5.84367 36.4336 9.12105C36.7528 9.10686 37.1288 9.09977 37.5119 9.09977L37.5048 9.10686Z" fill="black"/>
<path d="M35.6342 10.632C33.1726 15.4487 31.5268 20.6202 30.7536 26.0045C30.7252 26.2244 30.8671 26.4372 31.0941 26.501C31.8177 26.7068 32.52 26.9976 33.1797 27.3665C33.3854 27.48 33.6266 27.4232 33.7543 27.2317C37.4573 21.5353 42.3025 16.4277 47.7719 12.4409C44.4803 11.1924 41.0256 10.561 37.5141 10.561C36.9466 10.561 36.3436 10.5823 35.6413 10.632H35.6342Z" fill="black"/>
<path d="M62.0087 21.4505C67.8683 20.2942 73.8556 19.7835 79.8144 19.9254C76.0192 14.0232 70.791 9.07878 64.6902 5.60986C59.76 7.11377 55.078 9.31288 50.7578 12.1504C55.1915 14.2999 59.0719 17.5063 62.0087 21.4505Z" fill="black"/>
<path d="M49.3608 13.0938C43.6928 17.0734 38.6987 22.2662 34.9176 28.1186C34.8041 28.296 34.8396 28.5443 35.0028 28.6933C35.6058 29.2537 36.1378 29.885 36.5776 30.5731C36.7124 30.7789 36.9678 30.8498 37.1735 30.7292C44.4377 26.5651 52.2693 23.5573 60.4415 21.7767C57.5188 18.0311 53.6952 15.0304 49.3608 13.0867V13.0938Z" fill="black"/>
<path d="M37.5487 32.616C37.7544 33.2261 37.9034 33.8504 37.9814 34.4746C38.0098 34.7016 38.1942 34.8719 38.4141 34.8719C38.4141 34.8719 38.4283 34.8719 38.4354 34.8719C41.5283 34.73 44.7206 34.6094 47.8916 34.6094C50.5021 34.6094 53.0985 34.6874 55.6026 34.9073C59.1922 35.2124 62.8171 35.6735 66.3783 36.2765C65.8321 31.5519 64.1011 26.9906 61.37 23.0676C53.0488 24.8056 45.0966 27.8347 37.7331 32.0769C37.5487 32.1833 37.4706 32.4103 37.5416 32.616H37.5487Z" fill="black"/>
<path d="M62.9212 22.7555C65.6665 26.8771 67.3761 31.6371 67.8727 36.5319C74.1934 37.674 80.4998 39.2985 86.629 41.3558C86.3098 34.347 84.2667 27.4517 80.7127 21.4006C74.768 21.1878 68.7807 21.6418 62.9141 22.7484L62.9212 22.7555Z" fill="black"/>
<path d="M86.6815 42.9092C80.5737 40.8307 74.2885 39.192 67.9962 38.0286C68.0245 38.6103 68.0458 39.1423 68.0458 39.6389C68.0458 44.6472 66.8044 49.6129 64.4492 54.004C70.174 56.9977 76.1116 59.9416 82.0989 62.7579C85.1492 56.6855 86.6957 50.152 86.6957 43.3348C86.6957 43.2355 86.6957 43.1291 86.6957 43.0298C86.6957 42.9872 86.6957 42.9446 86.6957 42.895L86.6815 42.9092Z" fill="black"/>
<path d="M66.5178 37.7663C62.8503 37.1349 59.1402 36.6596 55.4868 36.3475C53.0252 36.1347 50.4714 36.0566 47.8963 36.0566C44.7253 36.0566 41.526 36.1772 38.4189 36.3262C38.206 36.3333 38.0287 36.5036 38.0074 36.7306C37.9436 37.3406 37.8159 37.9507 37.6314 38.5324C37.5676 38.7381 37.6456 38.951 37.823 39.0574C46.2789 44.1153 55.5152 49.3081 63.1766 53.3019C65.4112 49.1165 66.5888 44.3991 66.5888 39.6391C66.5888 39.0715 66.5675 38.4686 66.5178 37.7663Z" fill="black"/>
<path d="M62.4562 54.5577L62.1654 54.4087C54.5181 50.4077 45.6933 45.4491 37.3083 40.4408C37.2374 40.3982 37.1594 40.377 37.0813 40.377C36.9323 40.377 36.7976 40.4479 36.7195 40.5827C36.3436 41.2069 35.8824 41.8028 35.3575 42.3349C35.2085 42.4838 35.1802 42.7108 35.2866 42.8811C40.0679 50.7553 45.5727 58.211 51.6593 65.0354C56.1072 62.5454 59.8386 58.9275 62.4633 54.5648L62.4562 54.5577Z" fill="black"/>
<path d="M37.5064 68.7169C42.0039 68.7169 46.317 67.7095 50.3321 65.7303H50.3251C44.352 58.9911 38.9252 51.6418 34.2006 43.8953C34.1368 43.796 34.0375 43.718 33.9239 43.6896C33.8104 43.6612 33.6969 43.6825 33.6047 43.7463C32.8315 44.2358 32.0086 44.6047 31.1573 44.853C30.9374 44.9168 30.7955 45.1225 30.8239 45.3354C31.7816 53.3089 33.6757 61.169 36.4494 68.6956C36.8041 68.7098 37.1588 68.7169 37.5135 68.7169H37.5064Z" fill="black"/>
<path d="M51.34 66.844C47.0269 69.0502 42.3733 70.164 37.5069 70.164C37.3366 70.164 37.1663 70.164 36.9961 70.1569C39.1952 75.8604 41.9264 81.4007 45.1186 86.6431C52.2976 86.3522 59.3419 84.2595 65.5065 80.5849C60.5195 76.3356 55.7524 71.7104 51.34 66.8369V66.844Z" fill="black"/>
<path d="M52.6523 66.1345C57.0577 70.9725 61.8177 75.5694 66.8047 79.7902C72.9054 75.8531 77.9563 70.4192 81.4252 64.0559C75.4309 61.2326 69.4791 58.2815 63.7188 55.2666C61.0231 59.7641 57.2066 63.5168 52.6523 66.1345Z" fill="black"/>
</g>
<path d="M116.479 16.0222H114.688V27.9587H116.479V16.0222Z" fill="black"/>
<path d="M123.875 17.8357C124.604 19.1884 128.37 25.4168 129.919 27.9587H132.12V16.0222H130.45V20.4668C130.45 22.4141 130.45 24.3317 130.556 25.8182H130.526C129.873 24.5249 126.289 18.7871 124.589 16.0222H122.25V27.9587H123.936V23.3952C123.936 21.2398 123.936 19.1438 123.844 17.8357H123.875Z" fill="black"/>
<path d="M146.045 16.0222H136.523V17.5087H140.38V27.9587H142.172V17.5087H146.045V16.0222Z" fill="black"/>
<path d="M158.619 26.4574H152.059V22.4587H158.027V20.9574H152.059V17.5087H158.315V16.0222H150.312V27.9587H158.391L158.619 26.4574Z" fill="black"/>
<path d="M171.767 25.6101V25.0898C171.767 23.0087 170.901 22.2952 169.99 22.0425C171.099 21.7155 171.995 20.7938 171.995 19.233C171.995 17.3749 170.658 16.0222 168.137 16.0222H163.309V27.9587H165.085V22.7857H167.409C169.535 22.7857 169.99 23.4992 169.99 25.1195V25.3574C169.99 26.5019 169.99 27.4236 170.203 27.9438H171.934C171.736 27.4384 171.767 26.4128 171.767 25.5952V25.6101ZM167.621 21.329H165.07V17.479H167.773C169.352 17.479 170.142 18.1628 170.142 19.3817C170.142 20.6601 169.383 21.3141 167.606 21.3141L167.621 21.329Z" fill="black"/>
<path d="M185.376 20.4668C185.376 22.4141 185.376 24.3317 185.482 25.8182H185.452C184.799 24.5249 181.215 18.7871 179.514 16.0222H177.176V27.9587H178.861V23.3952C178.861 21.2398 178.861 19.1438 178.77 17.8357H178.801C179.529 19.1884 183.295 25.4168 184.844 27.9587H187.046V16.0222H185.376V20.4668Z" fill="black"/>
<path d="M195.79 16.0222L191.523 27.9587H193.3L194.53 24.5398H199.283L200.559 27.9587H202.457L198.008 16.0222H195.79ZM194.97 23.0384C195.851 20.4519 196.535 18.4601 196.838 17.4195H196.853C197.127 18.356 197.734 20.0209 198.828 23.0384H194.955H194.97Z" fill="black"/>
<path d="M207.896 27.9587H209.703V17.5087H213.56V16.0222H204.039V17.5087H207.896V27.9587Z" fill="black"/>
<path d="M219.616 16.0222H217.824V27.9587H219.616V16.0222Z" fill="black"/>
<path d="M230.385 15.8438C226.71 15.8438 224.645 18.564 224.645 21.9829C224.645 25.4019 226.634 28.1221 230.233 28.1221C234.059 28.1221 235.957 25.2086 235.957 21.9235C235.957 18.3559 233.801 15.8438 230.385 15.8438ZM230.309 26.6356C227.803 26.6356 226.512 24.4654 226.512 21.9383C226.512 19.4113 227.666 17.3451 230.293 17.3451C232.92 17.3451 234.075 19.441 234.075 21.9532C234.075 24.4654 233.012 26.6356 230.293 26.6356H230.309Z" fill="black"/>
<path d="M249.169 20.4668C249.169 22.4141 249.169 24.3317 249.275 25.8182H249.245C248.592 24.5249 245.008 18.7871 243.307 16.0222H240.969V27.9587H242.654V23.3952C242.654 21.2398 242.654 19.1438 242.563 17.8357H242.594C243.322 19.1884 247.088 25.4168 248.637 27.9587H250.839V16.0222H249.169V20.4668Z" fill="black"/>
<path d="M261.8 16.0222H259.583L255.316 27.9587H257.093L258.323 24.5398H263.076L264.352 27.9587H266.25L261.8 16.0222ZM258.763 23.0384C259.644 20.4519 260.328 18.4601 260.631 17.4195H260.646C260.92 18.356 261.527 20.0209 262.62 23.0384H258.748H258.763Z" fill="black"/>
<path d="M278.689 26.4574H272.432V16.0222H270.641V27.9587H278.446L278.689 26.4574Z" fill="black"/>
<path d="M119.349 37.3828H114.688V49.3193H116.495V44.5031H119.273C121.642 44.5031 123.389 43.2842 123.389 40.9058C123.389 38.7058 121.749 37.3977 119.365 37.3977L119.349 37.3828ZM119.137 43.0315H116.495V38.8544H119.197C120.549 38.8544 121.536 39.5382 121.536 40.9504C121.536 42.3625 120.701 43.0463 119.137 43.0463V43.0315Z" fill="black"/>
<path d="M133.381 37.2046C129.706 37.2046 127.641 39.9249 127.641 43.3438C127.641 46.7627 129.63 49.483 133.229 49.483C137.055 49.483 138.954 46.5695 138.954 43.2843C138.954 39.7168 136.797 37.2046 133.381 37.2046ZM133.305 47.9965C130.799 47.9965 129.508 45.8262 129.508 43.2992C129.508 40.7722 130.662 38.7059 133.29 38.7059C135.917 38.7059 137.071 40.8019 137.071 43.3141C137.071 45.8262 136.008 47.9965 133.29 47.9965H133.305Z" fill="black"/>
<path d="M145.788 37.3828H143.996V49.3044H151.801L152.044 47.8179H145.788V37.3828Z" fill="black"/>
<path d="M160.029 37.3828L155.762 49.3193H157.538L158.768 45.9004H163.521L164.797 49.3193H166.695L162.246 37.3828H160.029ZM159.209 44.399C160.089 41.8125 160.773 39.8207 161.077 38.7801H161.092C161.365 39.7166 161.972 41.3815 163.066 44.399H159.194H159.209Z" fill="black"/>
<path d="M179.772 40.579C179.772 38.7209 178.436 37.3682 175.915 37.3682H171.086V49.3047H172.863V44.1317H175.186C177.312 44.1317 177.767 44.8452 177.767 46.4655V46.7033C177.767 47.8479 177.767 48.7695 177.98 49.2898H179.711C179.514 48.7844 179.544 47.7587 179.544 46.9411V46.4209C179.544 44.3398 178.679 43.6263 177.767 43.3736C178.876 43.0465 179.772 42.1249 179.772 40.5641V40.579ZM175.399 42.6749H172.847V38.8398H175.55C177.13 38.8398 177.919 39.5236 177.919 40.7425C177.919 42.0209 177.16 42.6749 175.383 42.6749H175.399Z" fill="black"/>
<path d="M114.688 70.6652H116.449V65.4328H122.189V63.9315H116.449V60.2301H122.584V58.7288H114.688V70.6652Z" fill="black"/>
<path d="M132.424 58.5654C128.749 58.5654 126.684 61.2857 126.684 64.7046C126.684 68.1235 128.673 70.8438 132.272 70.8438C136.098 70.8438 137.997 67.9303 137.997 64.6452C137.997 61.0776 135.84 58.5654 132.424 58.5654ZM132.348 69.3573C129.842 69.3573 128.551 67.1871 128.551 64.66C128.551 62.133 129.705 60.0668 132.332 60.0668C134.96 60.0668 136.114 62.1627 136.114 64.6749C136.114 67.1871 135.051 69.3573 132.332 69.3573H132.348Z" fill="black"/>
<path d="M150.736 65.9085C150.736 68.5545 149.521 69.372 147.775 69.372C146.272 69.372 144.784 68.6288 144.784 65.9085V58.7437H142.977V65.9234C142.977 69.6545 145.194 70.8288 147.745 70.8288C150.296 70.8288 152.543 69.7288 152.543 65.8193V58.7437H150.736V65.9085Z" fill="black"/>
<path d="M166.38 63.1882C166.38 65.1355 166.38 67.0531 166.486 68.5396H166.456C165.803 67.2464 162.219 61.5085 160.518 58.7437H158.18V70.6801H159.865V66.1166C159.865 63.9612 159.865 61.8653 159.774 60.5572H159.805C160.533 61.9099 164.299 68.1382 165.848 70.6801H168.05V58.7437H166.38V63.1882Z" fill="black"/>
<path d="M178.224 58.7288H173.82V70.6652H178.163C181.701 70.6652 183.949 68.0936 183.949 64.5707C183.949 61.0477 181.656 58.7288 178.224 58.7288ZM178.042 69.1788H175.612V60.2152H178.042C180.881 60.2152 182.066 62.3261 182.066 64.6004C182.066 67.2315 180.775 69.1788 178.027 69.1788H178.042Z" fill="black"/>
<path d="M191.83 58.7288L187.562 70.6652H189.339L190.569 67.2463H195.322L196.598 70.6652H198.496L194.047 58.7288H191.83ZM191.01 65.745C191.89 63.1585 192.574 61.1666 192.877 60.1261H192.892C193.166 61.0625 193.773 62.7274 194.867 65.745H190.994H191.01Z" fill="black"/>
<path d="M200.074 60.2301H203.931V70.6652H205.738V60.2301H209.595V58.7288H200.074V60.2301Z" fill="black"/>
<path d="M215.655 58.7288H213.863V70.6652H215.655V58.7288Z" fill="black"/>
<path d="M226.42 58.5654C222.745 58.5654 220.68 61.2857 220.68 64.7046C220.68 68.1235 222.669 70.8438 226.268 70.8438C230.095 70.8438 231.993 67.9303 231.993 64.6452C231.993 61.0776 229.836 58.5654 226.42 58.5654ZM226.344 69.3573C223.838 69.3573 222.547 67.1871 222.547 64.66C222.547 62.133 223.702 60.0668 226.329 60.0668C228.956 60.0668 230.11 62.1627 230.11 64.6749C230.11 67.1871 229.047 69.3573 226.329 69.3573H226.344Z" fill="black"/>
<path d="M245.204 58.7288V63.1734C245.204 65.1207 245.204 67.0382 245.31 68.5247H245.28C244.627 67.2315 241.043 61.4936 239.342 58.7288H237.004V70.6652H238.689V66.1017C238.689 63.9463 238.689 61.8504 238.598 60.5423H238.629C239.358 61.895 243.124 68.1234 244.672 70.6652H246.874V58.7288H245.204Z" fill="black"/>
<defs>
<clipPath id="clip0_5213_32059">
<rect width="86.6875" height="86.6875" fill="white" transform="translate(0 -0.00146484)"/>
</clipPath>
</defs>
</svg>
