<svg width="64" height="61" viewBox="0 0 64 61" fill="none" xmlns="http://www.w3.org/2000/svg">
<path d="M25.3559 35.2312C25.3381 35.1009 25.2315 35.0002 25.1012 35.0002C25.1012 35.0002 25.0953 35.0002 25.0894 35.0002C24.6155 35.0239 24.1239 34.9765 23.6323 34.8699C23.502 34.8403 23.3776 34.9055 23.3243 35.018C21.8258 38.5658 20.9019 42.2972 20.582 46.1116C22.9808 47.7167 25.7527 48.6999 28.6253 48.9605C27.0202 44.5242 25.9186 39.9044 25.3559 35.2312Z" fill="black"/>
<path d="M20.5173 47.1006C20.3337 50.2634 20.5707 53.444 21.2103 56.5535C25.0069 58.6502 29.3188 59.7637 33.6839 59.7637C33.7017 59.7637 33.7254 59.7637 33.7432 59.7637C31.8538 56.6009 30.2427 53.2722 28.9456 49.8607C25.9546 49.6593 23.0464 48.7057 20.5114 47.1065L20.5173 47.1006Z" fill="black"/>
<path d="M19.7759 45.5309C20.1372 41.8232 21.0552 38.2043 22.5004 34.7631C22.5537 34.6328 22.5004 34.4847 22.3642 34.4255C21.7778 34.1412 21.2566 33.7621 20.8065 33.306C20.7058 33.2054 20.5577 33.1935 20.4511 33.2705C18.1945 35.0118 16.2458 37.227 14.8125 39.6732C16.003 41.9535 17.7147 43.9732 19.7759 45.5309Z" fill="black"/>
<path d="M19.6822 46.5437C17.4849 44.9801 15.631 42.9248 14.3161 40.5793C13.1138 42.8774 12.326 45.3532 11.9766 47.9415C14.0792 51.1813 16.9222 53.9592 20.2153 55.9729C19.6408 52.8634 19.4572 49.6888 19.6822 46.5437Z" fill="black"/>
<path d="M7.82422 33.8866C7.82422 38.4235 9.01472 42.8835 11.2773 46.7985C11.7333 44.2694 12.5921 41.8588 13.83 39.6437C12.6573 37.233 12.0413 34.6507 11.9999 31.9617C10.5724 32.4651 9.16872 33.087 7.83014 33.7978V33.8866H7.82422Z" fill="black"/>
<path d="M19.9176 32.5894C20.0242 32.5065 20.0479 32.3584 19.9768 32.24C19.6688 31.7306 19.4497 31.1798 19.3134 30.6053C19.2838 30.469 19.1594 30.3743 19.0291 30.392C16.9384 30.5993 14.8653 31.0317 12.8516 31.6773C12.8516 34.1353 13.3609 36.5104 14.3619 38.7492C15.813 36.4038 17.732 34.2774 19.9176 32.5953V32.5894Z" fill="black"/>
<path d="M10.9059 21.6262C9.03425 25.097 8.00367 28.8581 7.84375 32.8086C9.19417 32.1157 10.586 31.5175 11.9957 31.0377H12.0075C12.1023 28.3428 12.7657 25.7782 13.9917 23.3912C13.127 22.8996 12.2741 22.408 11.4153 21.9164L10.9059 21.6262Z" fill="black"/>
<path d="M12.8809 30.7533C14.8592 30.1433 16.9085 29.7287 18.9637 29.5214C19.0881 29.5095 19.1829 29.4148 19.2006 29.2904C19.2125 29.1897 19.2243 29.0772 19.2303 28.9587C19.2717 28.4493 19.325 27.7564 19.7159 26.8916C19.7692 26.7732 19.7159 26.631 19.5975 26.5658C17.9746 25.6537 16.3517 24.7357 14.7348 23.8176C13.6272 25.9854 13.0053 28.3131 12.875 30.7474L12.8809 30.7533Z" fill="black"/>
<path d="M14.4001 22.6331C15.8334 20.1455 17.8472 18.0014 20.246 16.4318C19.9735 15.0932 19.7307 13.6777 19.5352 12.2266C16.1888 14.424 13.3517 17.4091 11.332 20.874L11.9599 21.2353C12.7713 21.7032 13.5827 22.1711 14.406 22.639L14.4001 22.6331Z" fill="black"/>
<path d="M15.1523 23.0594C16.716 23.9478 18.3685 24.8837 20.0683 25.8372C20.1809 25.9024 20.323 25.8728 20.406 25.7662C20.8857 25.162 21.4721 24.6764 22.1414 24.3091C22.2598 24.244 22.3131 24.1137 22.2717 23.9952C21.5491 21.8215 20.9272 19.5827 20.4356 17.3379C18.2796 18.8127 16.4554 20.785 15.1523 23.0594Z" fill="black"/>
<path d="M21.0309 15.9401C23.3527 14.5837 25.8759 13.7723 28.5352 13.5295C29.5717 11.5808 30.8274 9.73881 32.2726 8.05078C28.0673 8.27585 23.945 9.54927 20.332 11.7289C20.5216 13.1563 20.7526 14.5719 21.025 15.9401H21.0309Z" fill="black"/>
<path d="M23.0706 23.6398C23.1121 23.7701 23.2601 23.8471 23.4023 23.8116C23.9472 23.6695 24.5099 23.6043 25.0548 23.628C25.1851 23.6398 25.2976 23.5391 25.3213 23.4029C25.7714 20.2875 26.7013 17.2727 28.0814 14.4475C25.6471 14.7496 23.3371 15.5492 21.2227 16.8404C21.7143 19.1325 22.3362 21.4188 23.0765 23.6458L23.0706 23.6398Z" fill="black"/>
<path d="M33.5486 8.00952C33.5486 8.00952 33.4894 8.00952 33.4598 8.00952C31.9613 9.66793 30.6523 11.4981 29.5625 13.4586C29.752 13.4527 29.9771 13.4467 30.2022 13.4467C32.6009 13.4467 34.9464 13.9146 37.1734 14.8445C39.7084 13.121 42.4566 11.7528 45.3529 10.7874C41.7163 8.94534 37.7953 8.00952 33.6908 8.00952C33.6434 8.00952 33.596 8.00952 33.5486 8.00952Z" fill="black"/>
<path d="M26.1739 23.5332C26.1561 23.6635 26.239 23.7938 26.3753 23.8294C26.8076 23.9478 27.2282 24.1255 27.6191 24.3447C27.7375 24.4098 27.8856 24.3802 27.9626 24.2677C30.1718 20.8679 33.0622 17.8176 36.3257 15.4366C34.3593 14.6903 32.3041 14.3113 30.2015 14.3113C29.8639 14.3113 29.5026 14.3231 29.082 14.3527C27.6132 17.2313 26.63 20.3171 26.168 23.5332H26.1739Z" fill="black"/>
<path d="M55.4496 19.9027C53.1811 16.3786 50.0657 13.423 46.4231 11.356C43.4794 12.2562 40.6838 13.5711 38.1133 15.2591C40.7549 16.5385 43.0767 18.4575 44.8239 20.8089C48.3184 20.1159 51.8959 19.8138 55.4496 19.8968V19.9027Z" fill="black"/>
<path d="M37.2724 15.8218C33.8904 18.1969 30.9112 21.3005 28.6546 24.789C28.5835 24.8956 28.6072 25.0437 28.702 25.1326C29.0633 25.4642 29.3772 25.8433 29.6378 26.2579C29.7148 26.3823 29.8688 26.4238 29.9932 26.3527C34.3287 23.871 39.0019 22.0704 43.8824 21.0102C42.1351 18.7714 39.8548 16.9827 37.2724 15.8218Z" fill="black"/>
<path d="M30.4928 28.5855C30.5106 28.7217 30.6172 28.8224 30.7475 28.8224C30.7475 28.8224 30.7535 28.8224 30.7594 28.8224C32.6073 28.7336 34.5145 28.6625 36.4039 28.6625C37.9616 28.6625 39.5134 28.7099 41.006 28.8402C43.1501 29.0238 45.3119 29.2962 47.4382 29.6575C47.1125 26.8382 46.0819 24.1137 44.4531 21.7742C39.4897 22.8107 34.7455 24.6231 30.3448 27.1522C30.2382 27.2173 30.1849 27.3535 30.2322 27.4779C30.3566 27.8392 30.4455 28.2124 30.4928 28.5855Z" fill="black"/>
<path d="M59.5209 32.7019C59.3313 28.5144 58.1112 24.398 55.9908 20.7909C52.443 20.6606 48.8715 20.9331 45.3711 21.5965C47.0117 24.0545 48.0305 26.8974 48.3266 29.8234C52.0995 30.5045 55.8665 31.4758 59.5209 32.7019Z" fill="black"/>
<path d="M59.5505 33.626C55.908 32.3881 52.1588 31.4049 48.3977 30.7119C48.4155 31.0614 48.4274 31.3753 48.4274 31.6714C48.4274 34.6625 47.687 37.6239 46.2773 40.2478C49.6949 42.0365 53.2367 43.7956 56.8083 45.4777C58.6266 41.8529 59.5505 37.9497 59.5505 33.8807C59.5505 33.8214 59.5505 33.7622 59.5505 33.6971C59.5505 33.6734 59.5505 33.6437 59.5505 33.6201V33.626Z" fill="black"/>
<path d="M47.5177 30.5519C45.3322 30.1729 43.117 29.8886 40.9315 29.705C39.4626 29.5806 37.9404 29.5332 36.4005 29.5332C34.5111 29.5332 32.598 29.6043 30.7441 29.6931C30.6138 29.6931 30.5131 29.7997 30.4953 29.936C30.4539 30.3032 30.3769 30.6645 30.2703 31.0139C30.2347 31.1324 30.2762 31.2627 30.3828 31.3278C35.4291 34.3485 40.9374 37.4462 45.5158 39.8331C46.8484 37.3337 47.5533 34.5203 47.5533 31.6773C47.5533 31.3397 47.5414 30.9784 47.5118 30.5579L47.5177 30.5519Z" fill="black"/>
<path d="M45.0899 40.5793L44.9182 40.4904C40.3575 38.1035 35.0862 35.1421 30.0873 32.151C30.0458 32.1273 29.9984 32.1155 29.951 32.1155C29.8622 32.1155 29.7793 32.1569 29.7319 32.2339C29.5068 32.6071 29.2344 32.9625 28.9204 33.2823C28.8316 33.3711 28.8138 33.5074 28.879 33.608C31.7338 38.3108 35.0151 42.7589 38.6458 46.8339C41.2993 45.3472 43.5263 43.1913 45.0899 40.5793Z" fill="black"/>
<path d="M30.206 49.0313C32.889 49.0313 35.4655 48.4331 37.8584 47.2485C34.2928 43.2209 31.0589 38.838 28.2396 34.2122C28.204 34.153 28.1448 34.1056 28.0737 34.0938C28.0086 34.076 27.9375 34.0938 27.8842 34.1234C27.4222 34.4136 26.9306 34.6387 26.4213 34.7867C26.2909 34.8223 26.208 34.9467 26.2199 35.077C26.7944 39.839 27.9197 44.5299 29.5782 49.0254C29.7914 49.0313 29.9987 49.0372 30.2119 49.0372L30.206 49.0313Z" fill="black"/>
<path d="M38.457 47.918C35.8806 49.2329 33.1027 49.9021 30.2005 49.9021C30.0998 49.9021 29.9991 49.9021 29.8984 49.9021C31.2133 53.3078 32.8421 56.6187 34.7434 59.746C39.0256 59.5742 43.2309 58.3245 46.909 56.133C43.9298 53.598 41.0868 50.838 38.457 47.9239V47.918Z" fill="black"/>
<path d="M39.2461 47.4915C41.8759 50.3819 44.7129 53.1242 47.6921 55.6414C51.3347 53.29 54.3495 50.0443 56.4166 46.2477C52.8391 44.5656 49.2854 42.8006 45.8501 41C44.245 43.689 41.9647 45.9278 39.2461 47.4856V47.4915Z" fill="black"/>
<path d="M15.4055 57.9082L13.3867 60.6216L13.8952 60.9999L15.914 58.2865L15.4055 57.9082Z" fill="black"/>
<path d="M13.7124 56.5416L12.9365 57.3767C12.5219 57.8209 12.0836 58.3066 11.8763 58.5613H11.8704C12.0007 58.1467 12.4331 56.2928 12.6108 55.5229L12.054 55.0076L9.75 57.4893L10.1764 57.8861L10.9346 57.0687C11.3136 56.6601 11.6986 56.2454 11.9355 55.9434H11.9415C11.8112 56.3343 11.4499 58.0105 11.2485 58.8811L11.8349 59.426L14.1389 56.9444L13.7124 56.5475V56.5416Z" fill="black"/>
<path d="M10.5434 53.2899L10.1347 52.7983L7.93142 54.6226L7.26805 53.8112L6.85938 54.1488L8.60071 56.2573L9.00938 55.9197L8.3401 55.1083L10.5434 53.2899Z" fill="black"/>
<path d="M7.49722 49.0195L7.01154 49.2387L7.98882 50.7609L7.16554 51.288L6.28303 49.908L5.83881 50.1923L6.72725 51.5723L6.02834 52.0224L5.09845 50.5772L4.66016 50.8616L5.91581 52.8279L8.76472 50.9978L7.49722 49.0195Z" fill="black"/>
<path d="M6.56743 47.2544L5.29993 47.8585L5.06301 47.361C4.82018 46.8457 4.94456 46.668 5.31178 46.4962L5.36508 46.4726C5.67899 46.3245 5.90406 46.206 6.01068 46.0935L5.75007 45.5486C5.63161 45.6611 5.38877 45.7737 5.18147 45.8743L5.03932 45.9454C4.50034 46.2001 4.43519 46.5081 4.4648 46.7213C4.2575 46.5199 3.92582 46.4015 3.51714 46.591C3.04331 46.8161 2.85377 47.3373 3.16177 47.9947L3.77775 49.2859L6.83396 47.8289L6.56743 47.2662V47.2544ZM3.9732 48.4863L3.67706 47.8704C3.51122 47.515 3.57637 47.2603 3.85474 47.13C4.13904 46.9938 4.37004 47.0826 4.55957 47.4854L4.84387 48.0777L3.97912 48.4863H3.9732Z" fill="black"/>
<path d="M5.05162 43.6474L3.96181 43.9909C3.38137 44.1745 2.75946 44.3759 2.4574 44.4944C2.77131 44.1982 4.06842 42.7945 4.60148 42.214L4.37641 41.4915L1.14844 42.5043L1.3202 43.061L2.3804 42.7293C2.90754 42.5635 3.45244 42.3917 3.80782 42.2437C3.50575 42.522 2.35671 43.8014 1.7585 44.4529L1.99541 45.2169L5.22339 44.2041L5.0457 43.6474H5.05162Z" fill="black"/>
<path d="M3.97561 39.6909L3.07533 39.5369L2.86803 38.2754L3.66762 37.8252L3.56101 37.1619L0.421875 38.921L0.552179 39.7028L4.08222 40.301L3.98153 39.685L3.97561 39.6909ZM0.954935 39.2645C1.22739 39.1342 1.65384 38.8973 2.37643 38.5064L2.53635 39.4836C1.84929 39.377 1.28069 39.2941 0.954935 39.2645Z" fill="black"/>
<path d="M0.610058 35.7937L3.46489 35.6456L3.43528 35.0119L0.580443 35.1599L0.527137 34.1116L0 34.1353L0.142149 36.8716L0.663364 36.842L0.610058 35.7937Z" fill="black"/>
<path d="M0.0659327 31.9603L0.0390625 32.5935L3.42391 32.7371L3.45078 32.104L0.0659327 31.9603Z" fill="black"/>
<path d="M1.84033 30.4274C2.79984 30.5755 3.64681 30.1431 3.80673 29.1126C3.97257 28.0346 3.24998 27.3653 2.32009 27.2232C1.30727 27.0692 0.519527 27.5667 0.371455 28.538C0.211537 29.5686 0.8749 30.2794 1.84033 30.4274ZM0.880823 28.6447C0.981512 27.9813 1.56196 27.774 2.22532 27.8747C2.86499 27.9754 3.39805 28.3189 3.29144 29.0059C3.19075 29.6456 2.60438 29.8766 1.92325 29.77C1.24804 29.6634 0.774211 29.2962 0.880823 28.6387V28.6447Z" fill="black"/>
<path d="M4.5013 25.5885L3.41149 25.2509C2.83105 25.0732 2.20322 24.8837 1.88338 24.8126C2.30983 24.7415 4.16962 24.3269 4.9396 24.1551L5.16467 23.4325L1.93077 22.4375L1.759 22.9943L2.82512 23.32C3.35818 23.4859 3.89717 23.6517 4.27623 23.7287C3.87348 23.7879 2.20322 24.1907 1.33848 24.3861L1.10156 25.1502L4.33546 26.1452L4.50722 25.5885H4.5013Z" fill="black"/>
<path d="M5.86239 21.7269L5.21087 21.0873L5.75578 19.9323L6.66791 20.0152L6.9522 19.4111L3.36885 19.0735L3.03125 19.7902L5.59586 22.2896L5.86239 21.721V21.7269ZM3.61762 19.6599C3.91376 19.7072 4.39944 19.7546 5.21087 19.8435L4.79035 20.7437C4.28098 20.2699 3.86638 19.8731 3.61169 19.6599H3.61762Z" fill="black"/>
<path d="M8.784 16.4556L8.37532 16.1061L7.46319 17.5572L5.04665 16.0232L4.70312 16.5622L7.56388 18.3746L8.784 16.4556Z" fill="black"/>
<path d="M11.2402 13.3934L10.2866 12.4991L10.7663 11.9838C11.2224 11.4981 11.3349 10.8762 10.8137 10.3964C10.3517 9.96407 9.74168 10.0411 9.26193 10.5504L8.33203 11.5455L10.8019 13.8613L11.2342 13.3993L11.2402 13.3934ZM9.14347 11.427L9.58768 10.9532C9.81868 10.7044 10.1148 10.6215 10.3814 10.8762C10.6479 11.125 10.6005 11.4093 10.3399 11.6876L9.90752 12.1496L9.13754 11.427H9.14347Z" fill="black"/>
<path d="M14.6666 10.2186C15.5135 9.53153 15.4247 8.54833 14.8324 7.81981C14.1868 7.02022 13.2628 6.86623 12.5047 7.48221C11.6933 8.13965 11.711 9.111 12.327 9.86913C12.9371 10.6213 13.8551 10.8701 14.6666 10.2186ZM12.8127 7.90866C13.3339 7.48813 13.9025 7.72505 14.323 8.24626C14.7317 8.74971 14.8916 9.35977 14.3527 9.80398C13.8551 10.2127 13.2569 9.98167 12.8246 9.45453C12.3981 8.92739 12.2915 8.33511 12.8068 7.91458L12.8127 7.90866Z" fill="black"/>
<path d="M19.0143 7.18609L18.807 6.70042L17.3441 7.59477L15.8515 5.15454L15.3125 5.48622L17.0775 8.37659L19.0143 7.18609Z" fill="black"/>
<path d="M20.5661 6.39837L20.4891 5.48625L21.6559 4.97096L22.2897 5.63432L22.8997 5.36187L20.4121 2.76172L19.6836 3.08155L19.9857 6.65306L20.5602 6.39837H20.5661ZM20.2285 3.35993C20.418 3.59092 20.7497 3.9463 21.3124 4.55043L20.4062 4.95319C20.3351 4.26021 20.2759 3.68569 20.2226 3.36585L20.2285 3.35993Z" fill="black"/>
<path d="M24.628 4.79911L24.2312 3.45461L24.7643 3.30061C25.3092 3.1407 25.4632 3.28877 25.5816 3.67968L25.5994 3.73299C25.6942 4.06467 25.7771 4.30751 25.8718 4.43189L26.4523 4.26012C26.3634 4.12982 26.2864 3.86921 26.2213 3.64414L26.1739 3.49015C26.0021 2.91563 25.7119 2.80901 25.4987 2.80309C25.7297 2.63133 25.9015 2.31741 25.7712 1.89097C25.6231 1.38752 25.1374 1.11507 24.4444 1.32237L23.0703 1.72513L24.0239 4.97087L24.6221 4.79318L24.628 4.79911ZM24.474 1.84951C24.8531 1.73697 25.09 1.84951 25.1729 2.13973C25.2618 2.4418 25.1374 2.65502 24.7169 2.7794L24.089 2.96301L23.8166 2.04496L24.474 1.84951Z" fill="black"/>
<path d="M30.43 3.59083L30.2938 2.18711L31.8574 2.03311L31.8101 1.5119L30.2464 1.65997L30.1576 0.741923L31.8278 0.582005L31.7745 0.060791L29.4883 0.279938L29.8081 3.65006L30.43 3.59083Z" fill="black"/>
<path d="M34.8501 3.48432C35.9399 3.52578 36.5204 2.72619 36.5559 1.79037C36.5914 0.765712 36.0051 0.0431194 35.0278 0.00165917C33.9854 -0.0398011 33.3575 0.70056 33.322 1.68376C33.2865 2.65511 33.8136 3.44286 34.8501 3.48432ZM34.9804 0.522874C35.6497 0.546565 35.9221 1.10332 35.8985 1.7726C35.8748 2.4182 35.5964 2.9868 34.8975 2.9631C34.2519 2.93941 33.9557 2.37674 33.9794 1.69561C34.0031 1.01447 34.317 0.505105 34.9804 0.528796V0.522874Z" fill="black"/>
<path d="M39.1872 3.9522C39.9158 4.08251 40.6087 3.90482 40.816 2.78539L41.1714 0.824915L40.5436 0.71238L40.1823 2.70247C40.0638 3.36584 39.7321 3.5376 39.2879 3.45468C38.9029 3.3836 38.5772 3.123 38.7016 2.43002L39.0629 0.439928L38.435 0.327393L38.0737 2.31156C37.8783 3.39545 38.4528 3.8219 39.1813 3.95812L39.1872 3.9522Z" fill="black"/>
<path d="M42.9766 3.64416C43.1721 3.06964 43.3735 2.44773 43.4564 2.1279H43.4623C43.5097 2.55434 43.8828 4.4319 44.0368 5.2078L44.7535 5.45064L45.8374 2.24043L45.2866 2.05682L44.9312 3.1111C44.7535 3.63823 44.5699 4.17722 44.4811 4.55036H44.4751C44.4337 4.14168 44.0783 2.4655 43.9006 1.58891L43.1425 1.33423L42.0586 4.54444L42.6153 4.73397L42.9826 3.65008L42.9766 3.64416Z" fill="black"/>
<path d="M49.5812 5.82978C50.0373 4.93543 49.753 4.06476 48.8882 3.62055L47.7332 3.03418L46.1992 6.05485L47.3305 6.62937C48.2367 7.09136 49.1311 6.7123 49.5812 5.82978ZM48.059 3.78639L48.598 4.05884C49.2377 4.3846 49.2554 5.0065 48.9889 5.53364C48.675 6.15554 48.1597 6.46946 47.5319 6.14962L46.9929 5.87717L48.0531 3.78639H48.059Z" fill="black"/>
<path d="M50.1598 8.24035L50.8943 7.70137L51.9426 8.42989L51.7057 9.31832L52.2565 9.69739L53.1805 6.22065L52.529 5.77051L49.6445 7.8909L50.1598 8.24628V8.24035ZM52.5704 6.36872C52.4698 6.65302 52.3394 7.12685 52.1203 7.91459L51.3029 7.35192C51.8597 6.93139 52.3158 6.58194 52.5645 6.36872H52.5704Z" fill="black"/>
<path d="M53.8977 11.1013L55.7812 8.95125L56.5689 9.63831L56.9184 9.24148L54.8572 7.44092L54.5078 7.83775L55.3014 8.53073L53.418 10.6867L53.8977 11.1013Z" fill="black"/>
<path d="M57.9975 10.3567L55.5352 12.6836L55.9704 13.1442L58.4328 10.8173L57.9975 10.3567Z" fill="black"/>
<path d="M57.8612 15.4722C58.5187 16.3428 59.5019 16.2836 60.2541 15.7209C61.0714 15.099 61.2609 14.1869 60.6687 13.4051C60.0408 12.5759 59.0695 12.5581 58.2877 13.1504C57.5118 13.7367 57.2334 14.6489 57.8612 15.4781V15.4722ZM58.6963 13.6598C59.2412 13.2511 59.8335 13.1622 60.2363 13.6953C60.639 14.2283 60.3844 14.791 59.8513 15.1997C59.336 15.5906 58.72 15.7328 58.2995 15.176C57.9086 14.6607 58.1574 14.0744 58.7023 13.6598H58.6963Z" fill="black"/>
<path d="M63.69 18.2738L62.7127 18.8128C62.227 19.0793 61.7295 19.3518 61.4097 19.5709C61.6525 19.2393 62.5232 17.7585 62.9852 17.0004L62.6002 16.3015L59.6328 17.9362L59.9171 18.4515L60.9181 17.9007C61.4511 17.6105 62.0197 17.2906 62.2981 17.107C62.0494 17.4624 61.0543 19.0912 60.6397 19.7664L61.0069 20.4298L63.9743 18.801L63.6959 18.2916L63.69 18.2738Z" fill="black"/>
</svg>
