<svg width="70" height="67" viewBox="0 0 70 67" fill="none" xmlns="http://www.w3.org/2000/svg">
<g filter="url(#filter0_d_5192_59335)">
<path d="M28.3559 37.2307C28.3381 37.1004 28.2315 36.9997 28.1012 36.9997C28.1012 36.9997 28.0953 36.9997 28.0894 36.9997C27.6155 37.0234 27.1239 36.976 26.6323 36.8694C26.502 36.8398 26.3776 36.905 26.3243 37.0175C24.8258 40.5653 23.9019 44.2967 23.582 48.1111C25.9808 49.7162 28.7527 50.6994 31.6253 50.96C30.0202 46.5238 28.9186 41.9039 28.3559 37.2307Z" fill="white"/>
<path d="M23.5173 49.1006C23.3337 52.2634 23.5707 55.444 24.2103 58.5535C28.0069 60.6502 32.3188 61.7637 36.6839 61.7637C36.7017 61.7637 36.7254 61.7637 36.7432 61.7637C34.8538 58.6009 33.2427 55.2722 31.9456 51.8607C28.9546 51.6593 26.0464 50.7057 23.5114 49.1065L23.5173 49.1006Z" fill="white"/>
<path d="M22.7759 47.5311C23.1372 43.8234 24.0552 40.2045 25.5004 36.7633C25.5537 36.633 25.5004 36.4849 25.3642 36.4257C24.7778 36.1414 24.2566 35.7624 23.8065 35.3063C23.7058 35.2056 23.5577 35.1938 23.4511 35.2708C21.1945 37.0121 19.2458 39.2272 17.8125 41.6734C19.003 43.9537 20.7147 45.9734 22.7759 47.5311Z" fill="white"/>
<path d="M22.6822 48.5439C20.4849 46.9803 18.631 44.9251 17.3161 42.5796C16.1138 44.8777 15.326 47.3534 14.9766 49.9417C17.0792 53.1816 19.9222 55.9594 23.2153 57.9732C22.6408 54.8637 22.4572 51.689 22.6822 48.5439Z" fill="white"/>
<path d="M10.8242 35.8864C10.8242 40.4233 12.0147 44.8832 14.2773 48.7983C14.7333 46.2692 15.5921 43.8586 16.83 41.6434C15.6573 39.2328 15.0413 36.6504 14.9999 33.9614C13.5724 34.4649 12.1687 35.0868 10.8301 35.7975V35.8864H10.8242Z" fill="white"/>
<path d="M22.9176 34.5892C23.0242 34.5063 23.0479 34.3582 22.9768 34.2397C22.6688 33.7304 22.4497 33.1795 22.3134 32.605C22.2838 32.4688 22.1594 32.374 22.0291 32.3918C19.9384 32.5991 17.8653 33.0315 15.8516 33.6771C15.8516 36.1351 16.3609 38.5101 17.3619 40.749C18.813 38.4035 20.732 36.2772 22.9176 34.5951V34.5892Z" fill="white"/>
<path d="M13.9059 23.626C12.0343 27.0968 11.0037 30.8578 10.8438 34.8084C12.1942 34.1154 13.586 33.5172 14.9957 33.0375H15.0075C15.1023 30.3425 15.7657 27.7779 16.9917 25.391C16.127 24.8994 15.2741 24.4078 14.4153 23.9162L13.9059 23.626Z" fill="white"/>
<path d="M15.8809 32.7531C17.8592 32.143 19.9085 31.7284 21.9637 31.5211C22.0881 31.5093 22.1829 31.4145 22.2006 31.2901C22.2125 31.1894 22.2243 31.0769 22.2303 30.9585C22.2717 30.4491 22.325 29.7561 22.7159 28.8914C22.7692 28.7729 22.7159 28.6308 22.5975 28.5656C20.9746 27.6535 19.3517 26.7354 17.7348 25.8174C16.6272 27.9852 16.0053 30.3129 15.875 32.7472L15.8809 32.7531Z" fill="white"/>
<path d="M17.4001 24.6331C18.8334 22.1455 20.8472 20.0014 23.246 18.4318C22.9735 17.0932 22.7307 15.6777 22.5352 14.2266C19.1888 16.424 16.3517 19.4091 14.332 22.874L14.9599 23.2353C15.7713 23.7032 16.5827 24.1711 17.406 24.639L17.4001 24.6331Z" fill="white"/>
<path d="M18.1523 25.0594C19.716 25.9478 21.3685 26.8837 23.0683 27.8372C23.1809 27.9024 23.323 27.8728 23.406 27.7662C23.8857 27.162 24.4721 26.6764 25.1414 26.3091C25.2598 26.244 25.3131 26.1137 25.2717 25.9952C24.5491 23.8215 23.9272 21.5827 23.4356 19.3379C21.2796 20.8127 19.4554 22.785 18.1523 25.0594Z" fill="white"/>
<path d="M24.0309 17.9401C26.3527 16.5837 28.8759 15.7723 31.5352 15.5295C32.5717 13.5808 33.8274 11.7388 35.2726 10.0508C31.0673 10.2759 26.945 11.5493 23.332 13.7289C23.5216 15.1563 23.7526 16.5719 24.025 17.9401H24.0309Z" fill="white"/>
<path d="M26.0706 25.6401C26.1121 25.7704 26.2601 25.8474 26.4023 25.8118C26.9472 25.6697 27.5099 25.6045 28.0548 25.6282C28.1851 25.6401 28.2976 25.5394 28.3213 25.4032C28.7714 22.2877 29.7013 19.273 31.0814 16.4478C28.6471 16.7498 26.3371 17.5494 24.2227 18.8406C24.7143 21.1328 25.3362 23.419 26.0765 25.646L26.0706 25.6401Z" fill="white"/>
<path d="M36.5486 10.0093C36.5486 10.0093 36.4894 10.0093 36.4598 10.0093C34.9613 11.6677 33.6523 13.4979 32.5625 15.4583C32.752 15.4524 32.9771 15.4465 33.2022 15.4465C35.6009 15.4465 37.9464 15.9144 40.1734 16.8443C42.7084 15.1207 45.4566 13.7525 48.3529 12.7871C44.7163 10.9451 40.7953 10.0093 36.6908 10.0093C36.6434 10.0093 36.596 10.0093 36.5486 10.0093Z" fill="white"/>
<path d="M29.1739 25.5335C29.1561 25.6638 29.239 25.7941 29.3753 25.8296C29.8076 25.9481 30.2282 26.1258 30.6191 26.3449C30.7375 26.4101 30.8856 26.3804 30.9626 26.2679C33.1718 22.8682 36.0622 19.8179 39.3257 17.4369C37.3593 16.6906 35.3041 16.3115 33.2015 16.3115C32.8639 16.3115 32.5026 16.3234 32.082 16.353C30.6132 19.2315 29.63 22.3173 29.168 25.5335H29.1739Z" fill="white"/>
<path d="M58.4496 21.9027C56.1811 18.3786 53.0657 15.423 49.4231 13.356C46.4794 14.2562 43.6838 15.5711 41.1133 17.2591C43.7549 18.5385 46.0767 20.4575 47.8239 22.8089C51.3184 22.1159 54.8959 21.8138 58.4496 21.8968V21.9027Z" fill="white"/>
<path d="M40.2724 17.8218C36.8904 20.1969 33.9112 23.3005 31.6546 26.789C31.5835 26.8956 31.6072 27.0437 31.702 27.1326C32.0633 27.4642 32.3772 27.8433 32.6378 28.2579C32.7148 28.3823 32.8688 28.4238 32.9932 28.3527C37.3287 25.871 42.0019 24.0704 46.8824 23.0102C45.1351 20.7714 42.8548 18.9827 40.2724 17.8218Z" fill="white"/>
<path d="M33.4928 30.5857C33.5106 30.722 33.6172 30.8227 33.7475 30.8227C33.7475 30.8227 33.7535 30.8227 33.7594 30.8227C35.6073 30.7338 37.5145 30.6627 39.4039 30.6627C40.9616 30.6627 42.5134 30.7101 44.006 30.8404C46.1501 31.024 48.3119 31.2965 50.4382 31.6578C50.1125 28.8385 49.0819 26.114 47.4531 23.7744C42.4897 24.8109 37.7455 26.6233 33.3448 29.1524C33.2382 29.2176 33.1849 29.3538 33.2322 29.4782C33.3566 29.8395 33.4455 30.2126 33.4928 30.5857Z" fill="white"/>
<path d="M62.5209 34.7019C62.3313 30.5144 61.1112 26.398 58.9908 22.7909C55.443 22.6606 51.8715 22.9331 48.3711 23.5965C50.0117 26.0545 51.0305 28.8974 51.3266 31.8234C55.0995 32.5045 58.8665 33.4758 62.5209 34.7019Z" fill="white"/>
<path d="M62.5505 35.626C58.908 34.3881 55.1588 33.4049 51.3977 32.7119C51.4155 33.0614 51.4274 33.3753 51.4274 33.6714C51.4274 36.6625 50.687 39.6239 49.2773 42.2478C52.6949 44.0365 56.2367 45.7956 59.8083 47.4777C61.6266 43.8529 62.5505 39.9497 62.5505 35.8807C62.5505 35.8214 62.5505 35.7622 62.5505 35.6971C62.5505 35.6734 62.5505 35.6437 62.5505 35.6201V35.626Z" fill="white"/>
<path d="M50.5177 32.5519C48.3322 32.1729 46.117 31.8886 43.9315 31.705C42.4626 31.5806 40.9404 31.5332 39.4005 31.5332C37.5111 31.5332 35.598 31.6043 33.7441 31.6931C33.6138 31.6931 33.5131 31.7997 33.4953 31.936C33.4539 32.3032 33.3769 32.6645 33.2703 33.0139C33.2347 33.1324 33.2762 33.2627 33.3828 33.3278C38.4291 36.3485 43.9374 39.4462 48.5158 41.8331C49.8484 39.3337 50.5533 36.5203 50.5533 33.6773C50.5533 33.3397 50.5414 32.9784 50.5118 32.5579L50.5177 32.5519Z" fill="white"/>
<path d="M48.0899 42.5795L47.9182 42.4907C43.3575 40.1038 38.0862 37.1423 33.0873 34.1513C33.0458 34.1276 32.9984 34.1157 32.951 34.1157C32.8622 34.1157 32.7793 34.1572 32.7319 34.2342C32.5068 34.6073 32.2344 34.9627 31.9204 35.2825C31.8316 35.3714 31.8138 35.5076 31.879 35.6083C34.7338 40.3111 38.0151 44.7592 41.6458 48.8341C44.2993 47.3475 46.5263 45.1915 48.0899 42.5795Z" fill="white"/>
<path d="M33.206 51.0315C35.889 51.0315 38.4655 50.4333 40.8584 49.2487C37.2928 45.2212 34.0589 40.8382 31.2396 36.2125C31.204 36.1532 31.1448 36.1058 31.0737 36.094C31.0086 36.0762 30.9375 36.094 30.8842 36.1236C30.4222 36.4138 29.9306 36.6389 29.4213 36.787C29.2909 36.8225 29.208 36.9469 29.2199 37.0772C29.7944 41.8392 30.9197 46.5301 32.5782 51.0256C32.7914 51.0315 32.9987 51.0375 33.2119 51.0375L33.206 51.0315Z" fill="white"/>
<path d="M41.457 49.918C38.8806 51.2329 36.1027 51.9021 33.2005 51.9021C33.0998 51.9021 32.9991 51.9021 32.8984 51.9021C34.2133 55.3078 35.8421 58.6187 37.7434 61.746C42.0256 61.5742 46.2309 60.3245 49.909 58.133C46.9298 55.598 44.0868 52.838 41.457 49.9239V49.918Z" fill="white"/>
<path d="M42.2461 49.4915C44.8759 52.3819 47.7129 55.1242 50.6921 57.6414C54.3347 55.29 57.3495 52.0443 59.4166 48.2477C55.8391 46.5656 52.2854 44.8006 48.8501 43C47.245 45.689 44.9647 47.9278 42.2461 49.4856V49.4915Z" fill="white"/>
<path d="M18.4055 59.9082L16.3867 62.6216L16.8952 62.9999L18.914 60.2865L18.4055 59.9082Z" fill="white"/>
<path d="M16.7124 58.5414L15.9365 59.3765C15.5219 59.8207 15.0836 60.3064 14.8763 60.5611H14.8704C15.0007 60.1465 15.4331 58.2926 15.6108 57.5226L15.054 57.0073L12.75 59.489L13.1764 59.8858L13.9346 59.0685C14.3136 58.6598 14.6986 58.2452 14.9355 57.9431H14.9415C14.8112 58.334 14.4499 60.0102 14.2485 60.8809L14.8349 61.4258L17.1389 58.9441L16.7124 58.5473V58.5414Z" fill="white"/>
<path d="M13.5434 55.2899L13.1347 54.7983L10.9314 56.6226L10.2681 55.8112L9.85938 56.1488L11.6007 58.2573L12.0094 57.9197L11.3401 57.1083L13.5434 55.2899Z" fill="white"/>
<path d="M10.4972 51.0195L10.0115 51.2387L10.9888 52.7609L10.1655 53.288L9.28303 51.908L8.83881 52.1923L9.72725 53.5723L9.02834 54.0224L8.09845 52.5772L7.66016 52.8616L8.91581 54.8279L11.7647 52.9978L10.4972 51.0195Z" fill="white"/>
<path d="M9.56743 49.2546L8.29993 49.8588L8.06301 49.3612C7.82018 48.8459 7.94456 48.6683 8.31178 48.4965L8.36508 48.4728C8.67899 48.3247 8.90406 48.2063 9.01068 48.0937L8.75007 47.5488C8.63161 47.6614 8.38877 47.7739 8.18147 47.8746L8.03932 47.9457C7.50034 48.2003 7.43519 48.5083 7.4648 48.7216C7.2575 48.5202 6.92582 48.4017 6.51714 48.5913C6.04331 48.8163 5.85377 49.3375 6.16177 49.995L6.77775 51.2862L9.83396 49.8291L9.56743 49.2665V49.2546ZM6.9732 50.4866L6.67706 49.8706C6.51122 49.5152 6.57637 49.2605 6.85474 49.1302C7.13904 48.994 7.37004 49.0829 7.55957 49.4856L7.84387 50.0779L6.97912 50.4866H6.9732Z" fill="white"/>
<path d="M8.05162 45.6476L6.96181 45.9912C6.38137 46.1748 5.75946 46.3761 5.4574 46.4946C5.77131 46.1985 7.06842 44.7947 7.60148 44.2143L7.37641 43.4917L4.14844 44.5045L4.3202 45.0613L5.3804 44.7296C5.90754 44.5637 6.45244 44.392 6.80782 44.2439C6.50575 44.5223 5.35671 45.8016 4.7585 46.4531L4.99541 47.2172L8.22339 46.2044L8.0457 45.6476H8.05162Z" fill="white"/>
<path d="M6.97561 41.6912L6.07533 41.5372L5.86803 40.2756L6.66762 39.8255L6.56101 39.1621L3.42188 40.9212L3.55218 41.703L7.08222 42.3012L6.98153 41.6853L6.97561 41.6912ZM3.95494 41.2647C4.22739 41.1344 4.65384 40.8975 5.37643 40.5066L5.53635 41.4839C4.84929 41.3773 4.28069 41.2944 3.95494 41.2647Z" fill="white"/>
<path d="M3.61006 37.7939L6.46489 37.6458L6.43528 37.0121L3.58044 37.1602L3.52714 36.1118L3 36.1355L3.14215 38.8719L3.66336 38.8423L3.61006 37.7939Z" fill="white"/>
<path d="M3.06593 33.9601L3.03906 34.5933L6.42391 34.7369L6.45078 34.1037L3.06593 33.9601Z" fill="white"/>
<path d="M4.84033 32.4277C5.79984 32.5758 6.64681 32.1434 6.80673 31.1128C6.97257 30.0348 6.24998 29.3655 5.32009 29.2234C4.30727 29.0694 3.51953 29.5669 3.37145 30.5383C3.21154 31.5689 3.8749 32.2796 4.84033 32.4277ZM3.88082 30.6449C3.98151 29.9815 4.56196 29.7742 5.22532 29.8749C5.86499 29.9756 6.39805 30.3191 6.29144 31.0062C6.19075 31.6459 5.60438 31.8769 4.92325 31.7702C4.24804 31.6636 3.77421 31.2964 3.88082 30.639V30.6449Z" fill="white"/>
<path d="M7.5013 27.5885L6.41149 27.2509C5.83105 27.0732 5.20322 26.8837 4.88338 26.8126C5.30983 26.7415 7.16962 26.3269 7.9396 26.1551L8.16467 25.4325L4.93077 24.4375L4.759 24.9943L5.82512 25.32C6.35818 25.4859 6.89717 25.6517 7.27623 25.7287C6.87348 25.7879 5.20322 26.1907 4.33848 26.3861L4.10156 27.1502L7.33546 28.1452L7.50722 27.5885H7.5013Z" fill="white"/>
<path d="M8.86239 23.7267L8.21087 23.087L8.75578 21.9321L9.66791 22.015L9.9522 21.4108L6.36885 21.0732L6.03125 21.7899L8.59586 24.2894L8.86239 23.7208V23.7267ZM6.61762 21.6596C6.91376 21.707 7.39944 21.7544 8.21087 21.8432L7.79035 22.7435C7.28098 22.2697 6.86638 21.8728 6.61169 21.6596H6.61762Z" fill="white"/>
<path d="M11.784 18.4553L11.3753 18.1059L10.4632 19.557L8.04665 18.0229L7.70312 18.5619L10.5639 20.3743L11.784 18.4553Z" fill="white"/>
<path d="M14.2402 15.3932L13.2866 14.4988L13.7663 13.9835C14.2224 13.4979 14.3349 12.8759 13.8137 12.3962C13.3517 11.9638 12.7417 12.0408 12.2619 12.5502L11.332 13.5452L13.8019 15.8611L14.2342 15.3991L14.2402 15.3932ZM12.1435 13.4268L12.5877 12.9529C12.8187 12.7042 13.1148 12.6213 13.3814 12.876C13.6479 13.1247 13.6005 13.409 13.3399 13.6874L12.9075 14.1494L12.1375 13.4268H12.1435Z" fill="white"/>
<path d="M17.6666 12.2188C18.5135 11.5318 18.4247 10.5486 17.8324 9.82006C17.1868 9.02047 16.2628 8.86647 15.5047 9.48245C14.6933 10.1399 14.711 11.1112 15.327 11.8694C15.9371 12.6216 16.8551 12.8703 17.6666 12.2188ZM15.8127 9.9089C16.3339 9.48838 16.9025 9.72529 17.323 10.2465C17.7317 10.75 17.8916 11.36 17.3527 11.8042C16.8551 12.2129 16.2569 11.9819 15.8246 11.4548C15.3981 10.9276 15.2915 10.3353 15.8068 9.91482L15.8127 9.9089Z" fill="white"/>
<path d="M22.0143 9.18634L21.807 8.70066L20.3441 9.59502L18.8515 7.15479L18.3125 7.48647L20.0775 10.3768L22.0143 9.18634Z" fill="white"/>
<path d="M23.5661 8.39837L23.4891 7.48625L24.6559 6.97096L25.2897 7.63432L25.8997 7.36187L23.4121 4.76172L22.6836 5.08155L22.9857 8.65306L23.5602 8.39837H23.5661ZM23.2285 5.35993C23.418 5.59092 23.7497 5.9463 24.3124 6.55043L23.4062 6.95319C23.3351 6.26021 23.2759 5.68569 23.2226 5.36585L23.2285 5.35993Z" fill="white"/>
<path d="M27.628 6.79911L27.2312 5.45461L27.7643 5.30061C28.3092 5.1407 28.4632 5.28877 28.5816 5.67968L28.5994 5.73299C28.6942 6.06467 28.7771 6.30751 28.8718 6.43189L29.4523 6.26012C29.3634 6.12982 29.2864 5.86921 29.2213 5.64414L29.1739 5.49015C29.0021 4.91563 28.7119 4.80901 28.4987 4.80309C28.7297 4.63133 28.9015 4.31741 28.7712 3.89097C28.6231 3.38752 28.1374 3.11507 27.4444 3.32237L26.0703 3.72513L27.0239 6.97087L27.6221 6.79318L27.628 6.79911ZM27.474 3.84951C27.8531 3.73697 28.09 3.84951 28.1729 4.13973C28.2618 4.4418 28.1374 4.65502 27.7169 4.7794L27.089 4.96301L26.8166 4.04496L27.474 3.84951Z" fill="white"/>
<path d="M33.43 5.59108L33.2938 4.18735L34.8574 4.03336L34.8101 3.51214L33.2464 3.66022L33.1576 2.74217L34.8278 2.58225L34.7745 2.06104L32.4883 2.28018L32.8081 5.65031L33.43 5.59108Z" fill="white"/>
<path d="M37.8501 5.48432C38.9399 5.52578 39.5204 4.72619 39.5559 3.79037C39.5914 2.76571 39.0051 2.04312 38.0278 2.00166C36.9854 1.9602 36.3575 2.70056 36.322 3.68376C36.2865 4.65511 36.8136 5.44286 37.8501 5.48432ZM37.9804 2.52287C38.6497 2.54657 38.9221 3.10332 38.8985 3.7726C38.8748 4.4182 38.5964 4.9868 37.8975 4.9631C37.2519 4.93941 36.9557 4.37674 36.9794 3.69561C37.0031 3.01447 37.317 2.5051 37.9804 2.5288V2.52287Z" fill="white"/>
<path d="M42.1872 5.95245C42.9158 6.08275 43.6087 5.90506 43.816 4.78564L44.1714 2.82516L43.5436 2.71262L43.1823 4.70272C43.0638 5.36608 42.7321 5.53784 42.2879 5.45492C41.9029 5.38385 41.5772 5.12324 41.7016 4.43026L42.0629 2.44017L41.435 2.32764L41.0737 4.31181C40.8783 5.39569 41.4528 5.82214 42.1813 5.95837L42.1872 5.95245Z" fill="white"/>
<path d="M45.9766 5.6444C46.1721 5.06988 46.3735 4.44798 46.4564 4.12814H46.4623C46.5097 4.55459 46.8828 6.43214 47.0368 7.20804L47.7535 7.45088L48.8374 4.24068L48.2866 4.05707L47.9312 5.11134C47.7535 5.63848 47.5699 6.17746 47.4811 6.5506H47.4751C47.4337 6.14192 47.0783 4.46574 46.9006 3.58916L46.1425 3.33447L45.0586 6.54468L45.6153 6.73421L45.9826 5.65032L45.9766 5.6444Z" fill="white"/>
<path d="M52.5812 7.82978C53.0373 6.93543 52.753 6.06476 51.8882 5.62055L50.7332 5.03418L49.1992 8.05485L50.3305 8.62937C51.2367 9.09136 52.1311 8.7123 52.5812 7.82978ZM51.059 5.78639L51.598 6.05884C52.2377 6.3846 52.2554 7.0065 51.9889 7.53364C51.675 8.15554 51.1597 8.46946 50.5319 8.14962L49.9929 7.87717L51.0531 5.78639H51.059Z" fill="white"/>
<path d="M53.1598 10.2404L53.8943 9.70137L54.9426 10.4299L54.7057 11.3183L55.2565 11.6974L56.1805 8.22065L55.529 7.77051L52.6445 9.8909L53.1598 10.2463V10.2404ZM55.5704 8.36872C55.4698 8.65302 55.3394 9.12685 55.1203 9.91459L54.3029 9.35192C54.8597 8.93139 55.3158 8.58194 55.5645 8.36872H55.5704Z" fill="white"/>
<path d="M56.8977 13.1013L58.7812 10.9513L59.5689 11.6383L59.9184 11.2415L57.8572 9.44092L57.5078 9.83775L58.3014 10.5307L56.418 12.6867L56.8977 13.1013Z" fill="white"/>
<path d="M60.9975 12.3567L58.5352 14.6836L58.9704 15.1442L61.4328 12.8173L60.9975 12.3567Z" fill="white"/>
<path d="M60.8612 17.4722C61.5187 18.3428 62.5019 18.2836 63.2541 17.7209C64.0714 17.099 64.2609 16.1869 63.6687 15.4051C63.0408 14.5759 62.0695 14.5581 61.2877 15.1504C60.5118 15.7367 60.2334 16.6489 60.8612 17.4781V17.4722ZM61.6963 15.6598C62.2412 15.2511 62.8335 15.1622 63.2363 15.6953C63.639 16.2283 63.3844 16.791 62.8513 17.1997C62.336 17.5906 61.72 17.7328 61.2995 17.176C60.9086 16.6607 61.1574 16.0744 61.7023 15.6598H61.6963Z" fill="white"/>
<path d="M66.69 20.2736L65.7127 20.8126C65.227 21.0791 64.7295 21.3516 64.4097 21.5707C64.6525 21.239 65.5232 19.7583 65.9852 19.0002L65.6002 18.3013L62.6328 19.936L62.9171 20.4513L63.9181 19.9004C64.4511 19.6102 65.0197 19.2904 65.2981 19.1068C65.0494 19.4622 64.0543 21.091 63.6397 21.7662L64.0069 22.4295L66.9743 20.8007L66.6959 20.2914L66.69 20.2736Z" fill="white"/>
</g>
<defs>
<filter id="filter0_d_5192_59335" x="0" y="0" width="69.9727" height="67" filterUnits="userSpaceOnUse" color-interpolation-filters="sRGB">
<feFlood flood-opacity="0" result="BackgroundImageFix"/>
<feColorMatrix in="SourceAlpha" type="matrix" values="0 0 0 0 0 0 0 0 0 0 0 0 0 0 0 0 0 0 127 0" result="hardAlpha"/>
<feOffset dy="1"/>
<feGaussianBlur stdDeviation="1.5"/>
<feComposite in2="hardAlpha" operator="out"/>
<feColorMatrix type="matrix" values="0 0 0 0 0 0 0 0 0 0.14902 0 0 0 0 0.466667 0 0 0 0.4 0"/>
<feBlend mode="normal" in2="BackgroundImageFix" result="effect1_dropShadow_5192_59335"/>
<feBlend mode="normal" in="SourceGraphic" in2="effect1_dropShadow_5192_59335" result="shape"/>
</filter>
</defs>
</svg>
