<svg width="280" height="87" viewBox="0 0 280 87" fill="none" xmlns="http://www.w3.org/2000/svg">
<g clip-path="url(#clip0_5213_15653)">
<path d="M29.8835 45.598C29.8551 45.3781 29.6707 45.2149 29.4579 45.2149C29.4579 45.2149 29.4437 45.2149 29.4366 45.2149C28.6421 45.2504 27.8192 45.1795 26.9963 44.995C26.7835 44.9454 26.5636 45.0518 26.4855 45.2504C23.9743 51.1951 22.4278 57.4448 21.8887 63.8364C25.9038 66.525 30.5574 68.1708 35.36 68.6035C32.6714 61.1691 30.827 53.4297 29.8764 45.6051L29.8835 45.598Z" fill="white"/>
<path d="M21.7743 65.4824C21.4692 70.7816 21.8594 76.1091 22.9377 81.316C29.3009 84.8346 36.5296 86.6861 43.8434 86.6861C43.8789 86.6861 43.9144 86.6861 43.9498 86.6861C40.7859 81.387 38.0832 75.8111 35.9124 70.0935C30.9041 69.753 26.0235 68.1568 21.7743 65.4824Z" fill="white"/>
<path d="M20.5257 62.8572C21.1358 56.65 22.6681 50.5847 25.0942 44.8174C25.1864 44.5974 25.0942 44.3563 24.8672 44.2498C23.8882 43.7746 23.0086 43.1432 22.2566 42.3771C22.0935 42.2068 21.8381 42.1855 21.6607 42.3203C17.8797 45.2359 14.6165 48.946 12.2188 53.0463C14.2121 56.8628 17.0781 60.2537 20.5328 62.8572H20.5257Z" fill="white"/>
<path d="M20.3777 64.5456C16.696 61.9279 13.5888 58.4803 11.3826 54.5503C9.36796 58.4023 8.0485 62.5522 7.4668 66.8866C10.9854 72.3134 15.7596 76.9599 21.2715 80.3366C20.3068 75.1226 20.0088 69.8164 20.3777 64.5385V64.5456Z" fill="white"/>
<path d="M7.48749 40.1211C5.08976 40.9653 2.74167 42.001 0.5 43.1998V43.3488C0.5 50.9464 2.49339 58.4163 6.28153 64.9781C7.04767 60.736 8.48774 56.7066 10.5521 52.9965C8.57996 48.9601 7.55134 44.6328 7.4804 40.1282L7.48749 40.1211Z" fill="white"/>
<path d="M11.4603 51.4788C13.8935 47.5559 17.107 43.9948 20.7675 41.1714C20.9448 41.0295 20.9874 40.7883 20.8668 40.5826C20.356 39.7313 19.98 38.8091 19.753 37.8444C19.7034 37.6173 19.4976 37.4613 19.2777 37.4897C15.7804 37.8444 12.2973 38.5608 8.92773 39.6391C8.92773 43.7536 9.779 47.7333 11.4603 51.4788Z" fill="white"/>
<path d="M7.50846 38.5749C7.66453 34.0703 8.78537 29.7643 10.8284 25.7775C9.38125 24.9546 7.94828 24.1317 6.51532 23.3088L5.66405 22.8193C2.53564 28.6221 0.811818 34.9215 0.535156 41.5401C2.79102 40.3767 5.13201 39.3836 7.49428 38.5749H7.50846Z" fill="white"/>
<path d="M8.98366 38.0993C12.3036 37.0778 15.73 36.3826 19.1776 36.042C19.3833 36.0208 19.5465 35.8647 19.5678 35.659C19.589 35.4887 19.6032 35.3043 19.6174 35.0986C19.6813 34.2473 19.7735 33.0839 20.4261 31.6367C20.5112 31.4452 20.4261 31.204 20.2346 31.0976C17.5176 29.5653 14.7936 28.0259 12.0908 26.4937C10.2393 30.1186 9.18938 34.0274 8.97656 38.1064L8.98366 38.0993Z" fill="white"/>
<path d="M11.5247 24.4932C13.9224 20.322 17.3062 16.7325 21.3213 14.1006C20.8602 11.8519 20.463 9.48959 20.1296 7.06348C14.5183 10.7381 9.77246 15.7393 6.38867 21.5421L7.43857 22.1451C8.8006 22.9254 10.1626 23.7129 11.5318 24.4932H11.5247Z" fill="white"/>
<path d="M12.7871 25.2103C15.4119 26.7 18.1785 28.2678 21.0231 29.8639C21.2076 29.9703 21.4488 29.9207 21.5906 29.7433C22.3993 28.736 23.3783 27.9131 24.4991 27.303C24.6978 27.1966 24.7829 26.9767 24.7191 26.7781C23.506 23.1389 22.4703 19.3862 21.6403 15.6265C18.0295 18.0951 14.972 21.4009 12.7871 25.2103Z" fill="white"/>
<path d="M35.2116 9.24152C36.9425 5.97833 39.0494 2.89248 41.4755 0.0620117C34.4313 0.445082 27.5218 2.57325 21.4707 6.22661C21.7828 8.61726 22.173 10.9866 22.6341 13.285C26.5216 11.0079 30.7495 9.65297 35.2116 9.24152Z" fill="white"/>
<path d="M26.0524 26.1821C26.1234 26.402 26.3717 26.5297 26.6058 26.4659C27.5138 26.2247 28.4573 26.1183 29.3795 26.1537C29.5923 26.175 29.7909 26.0048 29.8193 25.7778C30.5713 20.5566 32.1248 15.5129 34.4374 10.7812C30.3513 11.2849 26.4852 12.6257 22.9453 14.7822C23.7682 18.62 24.811 22.4507 26.0524 26.175V26.1821Z" fill="white"/>
<path d="M38.0048 9.10711C42.027 9.10711 45.957 9.89453 49.6813 11.441C53.9306 8.54669 58.5345 6.26245 63.3868 4.64504C57.3002 1.56629 50.7241 -0.00146484 43.8431 -0.00146484C43.765 -0.00146484 43.687 -0.00146484 43.609 -0.00146484C43.5593 -0.00146484 43.5096 -0.00146484 43.46 -0.00146484C40.9487 2.77225 38.7567 5.84391 36.9336 9.12129C37.2528 9.10711 37.6288 9.10001 38.0119 9.10001L38.0048 9.10711Z" fill="white"/>
<path d="M36.1323 10.632C33.6707 15.4487 32.0249 20.6202 31.2516 26.0045C31.2233 26.2244 31.3651 26.4372 31.5922 26.501C32.3157 26.7068 33.018 26.9976 33.6778 27.3665C33.8835 27.48 34.1247 27.4232 34.2524 27.2317C37.9554 21.5353 42.8005 16.4277 48.2699 12.4409C44.9783 11.1924 41.5236 10.561 38.0121 10.561C37.4446 10.561 36.8416 10.5823 36.1393 10.632H36.1323Z" fill="white"/>
<path d="M62.5068 21.4505C68.3664 20.2942 74.3536 19.7835 80.3125 19.9254C76.5172 14.0232 71.289 9.07878 65.1883 5.60986C60.258 7.11377 55.576 9.31288 51.2559 12.1504C55.6895 14.2999 59.5699 17.5063 62.5068 21.4505Z" fill="white"/>
<path d="M49.8589 13.0935C44.1909 17.0732 39.1967 22.2659 35.4157 28.1184C35.3022 28.2958 35.3377 28.544 35.5008 28.693C36.1038 29.2534 36.6358 29.8848 37.0757 30.5729C37.2105 30.7786 37.4658 30.8496 37.6716 30.729C44.9357 26.5648 52.7674 23.557 60.9396 21.7765C58.0169 18.0309 54.1933 15.0302 49.8589 13.0864V13.0935Z" fill="white"/>
<path d="M38.0487 32.6158C38.2544 33.2259 38.4034 33.8501 38.4814 34.4744C38.5098 34.7014 38.6942 34.8716 38.9141 34.8716C38.9141 34.8716 38.9283 34.8716 38.9354 34.8716C42.0283 34.7298 45.2206 34.6092 48.3916 34.6092C51.0021 34.6092 53.5985 34.6872 56.1026 34.9071C59.6922 35.2121 63.3171 35.6732 66.8783 36.2762C66.3321 31.5517 64.6011 26.9903 61.87 23.0674C53.5488 24.8054 45.5966 27.8345 38.2331 32.0766C38.0487 32.183 37.9706 32.4101 38.0416 32.6158H38.0487Z" fill="white"/>
<path d="M63.4231 22.7555C66.1684 26.8771 67.8781 31.6371 68.3747 36.5319C74.6953 37.674 81.0018 39.2985 87.1309 41.3558C86.8117 34.347 84.7687 27.4517 81.2146 21.4006C75.2699 21.1878 69.2827 21.6418 63.416 22.7484L63.4231 22.7555Z" fill="white"/>
<path d="M87.1796 42.9089C81.0717 40.8304 74.7865 39.1917 68.4942 38.0283C68.5226 38.61 68.5439 39.1421 68.5439 39.6386C68.5439 44.6469 67.3024 49.6127 64.9473 54.0038C70.672 56.9974 76.6096 59.9414 82.5969 62.7577C85.6473 56.6853 87.1937 50.1518 87.1937 43.3346C87.1937 43.2352 87.1937 43.1288 87.1937 43.0295C87.1937 42.987 87.1937 42.9444 87.1937 42.8947L87.1796 42.9089Z" fill="white"/>
<path d="M67.0198 37.7663C63.3522 37.1349 59.6421 36.6596 55.9887 36.3475C53.5272 36.1347 50.9734 36.0566 48.3983 36.0566C45.2273 36.0566 42.0279 36.1772 38.9208 36.3262C38.708 36.3333 38.5306 36.5036 38.5094 36.7306C38.4455 37.3406 38.3178 37.9507 38.1334 38.5324C38.0695 38.7381 38.1476 38.951 38.3249 39.0574C46.7809 44.1153 56.0171 49.3081 63.6785 53.3019C65.9131 49.1165 67.0907 44.3991 67.0907 39.6391C67.0907 39.0715 67.0694 38.4686 67.0198 37.7663Z" fill="white"/>
<path d="M62.9543 54.5577L62.6634 54.4087C55.0162 50.4077 46.1914 45.4491 37.8064 40.4408C37.7354 40.3982 37.6574 40.377 37.5794 40.377C37.4304 40.377 37.2956 40.4479 37.2176 40.5827C36.8416 41.2069 36.3805 41.8028 35.8555 42.3349C35.7066 42.4838 35.6782 42.7108 35.7846 42.8811C40.5659 50.7553 46.0708 58.211 52.1573 65.0354C56.6052 62.5454 60.3366 58.9275 62.9614 54.5648L62.9543 54.5577Z" fill="white"/>
<path d="M38.0044 68.7169C42.502 68.7169 46.815 67.7095 50.8302 65.7303H50.8231C44.85 58.9911 39.4232 51.6418 34.6987 43.8953C34.6348 43.796 34.5355 43.718 34.422 43.6896C34.3085 43.6612 34.195 43.6825 34.1028 43.7463C33.3295 44.2358 32.5066 44.6047 31.6554 44.853C31.4355 44.9168 31.2936 45.1225 31.322 45.3354C32.2796 53.3089 34.1737 61.169 36.9474 68.6956C37.3021 68.7098 37.6568 68.7169 38.0115 68.7169H38.0044Z" fill="white"/>
<path d="M51.838 66.844C47.5249 69.0502 42.8713 70.164 38.0049 70.164C37.8346 70.164 37.6644 70.164 37.4941 70.1569C39.6933 75.8604 42.4244 81.4007 45.6167 86.6431C52.7957 86.3522 59.8399 84.2595 66.0045 80.5849C61.0175 76.3356 56.2504 71.7104 51.838 66.8369V66.844Z" fill="white"/>
<path d="M53.1504 66.1345C57.5557 70.9725 62.3157 75.5694 67.3027 79.7902C73.4035 75.8531 78.4543 70.4192 81.9233 64.0559C75.9289 61.2326 69.9771 58.2815 64.2169 55.2666C61.5212 59.7641 57.7047 63.5168 53.1504 66.1345Z" fill="white"/>
</g>
<path d="M117.292 16.1782H115.5V28.1147H117.292V16.1782Z" fill="white"/>
<path d="M124.687 17.9917C125.416 19.3444 129.182 25.5728 130.731 28.1147H132.933V16.1782H131.262V20.6228C131.262 22.5701 131.262 24.4877 131.369 25.9742H131.338C130.685 24.6809 127.102 18.9431 125.401 16.1782H123.062V28.1147H124.748V23.5512C124.748 21.3958 124.748 19.2998 124.657 17.9917H124.687Z" fill="white"/>
<path d="M146.857 16.1782H137.336V17.6647H141.193V28.1147H142.985V17.6647H146.857V16.1782Z" fill="white"/>
<path d="M159.431 26.6134H152.871V22.6147H158.839V21.1134H152.871V17.6647H159.128V16.1782H151.125V28.1147H159.204L159.431 26.6134Z" fill="white"/>
<path d="M172.581 25.7661V25.2458C172.581 23.1647 171.716 22.4512 170.805 22.1985C171.913 21.8715 172.809 20.9498 172.809 19.389C172.809 17.5309 171.473 16.1782 168.952 16.1782H164.123V28.1147H165.9V22.9417H168.223C170.349 22.9417 170.805 23.6553 170.805 25.2755V25.5134C170.805 26.658 170.805 27.5796 171.017 28.0998H172.748C172.551 27.5944 172.581 26.5688 172.581 25.7512V25.7661ZM168.436 21.485H165.885V17.635H168.587C170.167 17.635 170.956 18.3188 170.956 19.5377C170.956 20.8161 170.197 21.4701 168.42 21.4701L168.436 21.485Z" fill="white"/>
<path d="M186.186 20.6228C186.186 22.5701 186.186 24.4877 186.293 25.9742H186.262C185.609 24.6809 182.026 18.9431 180.325 16.1782H177.986V28.1147H179.672V23.5512C179.672 21.3958 179.672 19.2998 179.581 17.9917H179.611C180.34 19.3444 184.106 25.5728 185.655 28.1147H187.857V16.1782H186.186V20.6228Z" fill="white"/>
<path d="M196.605 16.1782L192.338 28.1147H194.115L195.345 24.6958H200.098L201.373 28.1147H203.271L198.822 16.1782H196.605ZM195.785 23.1944C196.666 20.608 197.349 18.6161 197.653 17.5755H197.668C197.941 18.512 198.549 20.1769 199.642 23.1944H195.77H195.785Z" fill="white"/>
<path d="M208.707 28.1147H210.514V17.6647H214.371V16.1782H204.85V17.6647H208.707V28.1147Z" fill="white"/>
<path d="M220.431 16.1782H218.639V28.1147H220.431V16.1782Z" fill="white"/>
<path d="M231.195 16C227.52 16 225.455 18.7203 225.455 22.1392C225.455 25.5581 227.444 28.2784 231.043 28.2784C234.87 28.2784 236.768 25.3649 236.768 22.0797C236.768 18.5122 234.612 16 231.195 16ZM231.119 26.7919C228.614 26.7919 227.323 24.6216 227.323 22.0946C227.323 19.5676 228.477 17.5014 231.104 17.5014C233.731 17.5014 234.885 19.5973 234.885 22.1095C234.885 24.6216 233.822 26.7919 231.104 26.7919H231.119Z" fill="white"/>
<path d="M249.979 20.6228C249.979 22.5701 249.979 24.4877 250.086 25.9742H250.055C249.402 24.6809 245.819 18.9431 244.118 16.1782H241.779V28.1147H243.465V23.5512C243.465 21.3958 243.465 19.2998 243.374 17.9917H243.404C244.133 19.3444 247.899 25.5728 249.448 28.1147H251.65V16.1782H249.979V20.6228Z" fill="white"/>
<path d="M262.615 16.1782H260.398L256.131 28.1147H257.908L259.138 24.6958H263.89L265.166 28.1147H267.064L262.615 16.1782ZM259.578 23.1944C260.459 20.608 261.142 18.6161 261.446 17.5755H261.461C261.734 18.512 262.342 20.1769 263.435 23.1944H259.563H259.578Z" fill="white"/>
<path d="M279.499 26.6134H273.243V16.1782H271.451V28.1147H279.256L279.499 26.6134Z" fill="white"/>
<path d="M120.162 37.5391H115.5V49.4756H117.307V44.6593H120.086C122.455 44.6593 124.201 43.4404 124.201 41.062C124.201 38.862 122.561 37.5539 120.177 37.5539L120.162 37.5391ZM119.949 43.1877H117.307V39.0107H120.01C121.361 39.0107 122.349 39.6945 122.349 41.1066C122.349 42.5188 121.513 43.2026 119.949 43.2026V43.1877Z" fill="white"/>
<path d="M134.193 37.3608C130.518 37.3608 128.453 40.0811 128.453 43.5C128.453 46.919 130.442 49.6392 134.041 49.6392C137.868 49.6392 139.766 46.7257 139.766 43.4406C139.766 39.873 137.61 37.3608 134.193 37.3608ZM134.117 48.1527C131.612 48.1527 130.321 45.9825 130.321 43.4554C130.321 40.9284 131.475 38.8622 134.102 38.8622C136.729 38.8622 137.883 40.9581 137.883 43.4703C137.883 45.9825 136.82 48.1527 134.102 48.1527H134.117Z" fill="white"/>
<path d="M146.598 37.5391H144.807V49.4607H152.612L152.855 47.9742H146.598V37.5391Z" fill="white"/>
<path d="M160.843 37.5391L156.576 49.4756H158.353L159.583 46.0566H164.336L165.611 49.4756H167.51L163.06 37.5391H160.843ZM160.023 44.5553C160.904 41.9688 161.587 39.9769 161.891 38.9364H161.906C162.18 39.8728 162.787 41.5377 163.88 44.5553H160.008H160.023Z" fill="white"/>
<path d="M180.584 40.7352C180.584 38.8771 179.248 37.5244 176.727 37.5244H171.898V49.4609H173.675V44.2879H175.998C178.124 44.2879 178.58 45.0014 178.58 46.6217V46.8596C178.58 48.0041 178.58 48.9258 178.793 49.446H180.524C180.326 48.9406 180.357 47.915 180.357 47.0974V46.5771C180.357 44.496 179.491 43.7825 178.58 43.5298C179.688 43.2028 180.584 42.2812 180.584 40.7204V40.7352ZM176.211 42.8312H173.66V38.996H176.363C177.942 38.996 178.732 39.6798 178.732 40.8987C178.732 42.1771 177.973 42.8312 176.196 42.8312H176.211Z" fill="white"/>
<path d="M115.5 70.8217H117.261V65.5893H123.001V64.088H117.261V60.3866H123.396V58.8853H115.5V70.8217Z" fill="white"/>
<path d="M133.236 58.7217C129.561 58.7217 127.496 61.4419 127.496 64.8609C127.496 68.2798 129.485 71.0001 133.084 71.0001C136.911 71.0001 138.809 68.0865 138.809 64.8014C138.809 61.2338 136.653 58.7217 133.236 58.7217ZM133.16 69.5136C130.655 69.5136 129.364 67.3433 129.364 64.8163C129.364 62.2892 130.518 60.223 133.145 60.223C135.772 60.223 136.926 62.319 136.926 64.8311C136.926 67.3433 135.863 69.5136 133.145 69.5136H133.16Z" fill="white"/>
<path d="M151.549 66.0648C151.549 68.7107 150.334 69.5283 148.588 69.5283C147.084 69.5283 145.596 68.785 145.596 66.0648V58.8999H143.789V66.0796C143.789 69.8107 146.006 70.985 148.557 70.985C151.108 70.985 153.356 69.885 153.356 65.9756V58.8999H151.549V66.0648Z" fill="white"/>
<path d="M167.19 63.3445C167.19 65.2918 167.19 67.2094 167.297 68.6959H167.266C166.613 67.4026 163.029 61.6648 161.329 58.8999H158.99V70.8364H160.676V66.2729C160.676 64.1175 160.676 62.0215 160.585 60.7134H160.615C161.344 62.0661 165.11 68.2945 166.659 70.8364H168.861V58.8999H167.19V63.3445Z" fill="white"/>
<path d="M179.035 58.8853H174.631V70.8217H178.974C182.512 70.8217 184.759 68.2501 184.759 64.7271C184.759 61.2042 182.466 58.8853 179.035 58.8853ZM178.852 69.3353H176.423V60.3717H178.852C181.692 60.3717 182.876 62.4825 182.876 64.7569C182.876 67.388 181.586 69.3353 178.837 69.3353H178.852Z" fill="white"/>
<path d="M192.64 58.8853L188.373 70.8217H190.15L191.38 67.4028H196.133L197.408 70.8217H199.306L194.857 58.8853H192.64ZM191.82 65.9015C192.701 63.315 193.384 61.3231 193.688 60.2826H193.703C193.976 61.219 194.584 62.8839 195.677 65.9015H191.805H191.82Z" fill="white"/>
<path d="M200.887 60.3866H204.744V70.8217H206.551V60.3866H210.408V58.8853H200.887V60.3866Z" fill="white"/>
<path d="M216.466 58.8853H214.674V70.8217H216.466V58.8853Z" fill="white"/>
<path d="M227.232 58.7217C223.557 58.7217 221.492 61.4419 221.492 64.8609C221.492 68.2798 223.481 71.0001 227.08 71.0001C230.907 71.0001 232.805 68.0865 232.805 64.8014C232.805 61.2338 230.649 58.7217 227.232 58.7217ZM227.156 69.5136C224.651 69.5136 223.36 67.3433 223.36 64.8163C223.36 62.2892 224.514 60.223 227.141 60.223C229.768 60.223 230.922 62.319 230.922 64.8311C230.922 67.3433 229.859 69.5136 227.141 69.5136H227.156Z" fill="white"/>
<path d="M246.016 58.8853V63.3298C246.016 65.2771 246.016 67.1947 246.123 68.6812H246.092C245.439 67.388 241.856 61.6501 240.155 58.8853H237.816V70.8217H239.502V66.2582C239.502 64.1028 239.502 62.0069 239.411 60.6988H239.441C240.17 62.0515 243.936 68.2799 245.485 70.8217H247.687V58.8853H246.016Z" fill="white"/>
<defs>
<clipPath id="clip0_5213_15653">
<rect width="86.6875" height="86.6875" fill="white" transform="translate(0.5 -0.00146484)"/>
</clipPath>
</defs>
</svg>
